<svg width="20" height="20" viewBox="0 0 20 20" fill="none" xmlns="http://www.w3.org/2000/svg">
<path d="M15.6249 5L15.6249 13.125C15.6249 13.2908 15.559 13.4497 15.4418 13.5669C15.3246 13.6842 15.1656 13.75 14.9999 13.75C14.8341 13.75 14.6751 13.6842 14.5579 13.5669C14.4407 13.4497 14.3749 13.2908 14.3749 13.125L14.3749 6.50859L5.44205 15.4422C5.32477 15.5595 5.16571 15.6253 4.99986 15.6253C4.83401 15.6253 4.67495 15.5595 4.55767 15.4422C4.4404 15.3249 4.37451 15.1659 4.37451 15C4.37451 14.8341 4.4404 14.6751 4.55767 14.5578L13.4913 5.625L6.87486 5.625C6.7091 5.625 6.55013 5.55915 6.43292 5.44194C6.31571 5.32473 6.24986 5.16576 6.24986 5C6.24986 4.83424 6.31571 4.67527 6.43292 4.55806C6.55013 4.44085 6.7091 4.375 6.87486 4.375L14.9999 4.375C15.1656 4.375 15.3246 4.44085 15.4418 4.55806C15.559 4.67527 15.6249 4.83424 15.6249 5Z" fill="white"/>
</svg>
