<svg width="97" height="30" viewBox="0 0 97 30" fill="none" xmlns="http://www.w3.org/2000/svg">
<mask id="mask0_4011_11313" style="mask-type:luminance" maskUnits="userSpaceOnUse" x="6" y="6" width="85" height="16">
<path d="M90.727 6.6543L6.04688 6.6543V21.7758H90.727V6.6543Z" fill="white"/>
</mask>
<g mask="url(#mask0_4011_11313)">
<path d="M9.68461 10.3109C12.4159 9.31556 15.2604 10.5993 16.284 13.4098C16.3518 13.5964 16.448 13.947 16.4875 14.1392C16.5554 14.4107 16.414 14.6708 16.1765 14.7557L9.03426 17.357C9.62805 18.7481 11.3698 19.6868 13.0776 19.0704C14.022 18.7255 14.7345 17.9903 15.136 17.4588C15.3848 17.159 15.5318 16.9894 15.8372 17.176L16.9343 17.9055C17.1944 18.0469 17.3471 18.2278 17.1322 18.6067C16.6119 19.5398 15.4809 20.6934 13.7222 21.3324C10.5498 22.4917 7.54135 20.7612 6.43864 17.7415C5.35851 14.7726 6.53475 11.4588 9.68461 10.3109ZM13.6657 13.8C13.1285 12.5672 11.6864 11.8716 10.3971 12.341C8.97771 12.8556 8.24819 14.2807 8.57052 15.6548L13.6657 13.8Z" fill="#2B333F"/>
<path d="M22.2886 10.3118C25.0199 9.31654 27.8644 10.6002 28.888 13.4108C28.9558 13.5974 29.052 13.9479 29.0915 14.1402C29.1594 14.4117 29.018 14.6718 28.7805 14.7566L21.6383 17.3579C22.2321 18.7491 23.9738 19.6878 25.6816 19.0714C26.6259 18.7264 27.3385 17.9913 27.74 17.4597C27.9888 17.16 28.1359 16.9904 28.4412 17.177L29.5383 17.9064C29.7984 18.0478 29.9511 18.2288 29.7362 18.6077C29.2159 19.5408 28.0849 20.6943 26.3262 21.3334C23.1482 22.4927 20.1397 20.7622 19.037 17.7368C17.9626 14.7736 19.1388 11.4598 22.2886 10.3118ZM26.2697 13.801C25.7325 12.5681 24.2905 11.8726 23.0011 12.342C21.5817 12.8566 20.8522 14.2816 21.1746 15.6558L26.2697 13.801Z" fill="#2B333F"/>
<path d="M34.8987 10.3109C37.6301 9.31556 40.4746 10.5993 41.4982 13.4098C41.566 13.5964 41.6621 13.947 41.7017 14.1392C41.7696 14.4107 41.6282 14.6708 41.3907 14.7557L34.2484 17.357C34.8422 18.7481 36.5839 19.6868 38.2917 19.0704C39.2361 18.7255 39.9486 17.9903 40.3501 17.4588C40.599 17.159 40.746 16.9894 41.0513 17.176L42.1484 17.9055C42.4086 18.0469 42.5613 18.2278 42.3464 18.6067C41.8261 19.5398 40.6951 20.6934 38.9364 21.3324C35.7583 22.4917 32.7498 20.7612 31.6471 17.7358C30.5727 14.7726 31.7432 11.4588 34.8987 10.3109ZM38.8742 13.8C38.337 12.5672 36.8949 11.8716 35.6056 12.341C34.1862 12.8556 33.4567 14.2807 33.7791 15.6548L38.8742 13.8Z" fill="#2B333F"/>
<path d="M52.3311 10.9587C52.1617 10.5968 52.3311 10.314 52.7212 10.314H54.2311C54.4292 10.314 54.678 10.4554 54.7346 10.6477L56.6063 16.8229H56.6347L59.6261 10.3083C59.6827 10.167 59.8748 10.0312 60.1012 10.0312H60.2706C60.5195 10.0312 60.6889 10.1727 60.7457 10.3083L63.7089 16.8512H63.7373L65.581 10.6477C65.7225 10.314 66.1411 10.314 66.4459 10.314H67.5371C67.9278 10.314 68.1256 10.5911 67.9556 10.9587L64.687 21.494C64.6307 21.6636 64.4384 21.7711 64.1843 21.7711H64.0712C63.8444 21.7711 63.6527 21.658 63.5958 21.5222L60.1576 14.0576H60.1292L56.7194 21.5279C56.663 21.6693 56.4933 21.7767 56.2729 21.7767H56.1315C55.905 21.7767 55.713 21.6636 55.6563 21.4996L52.3311 10.9587Z" fill="#2B333F"/>
<path d="M72.9456 10.3118C75.6772 9.31654 78.5218 10.6002 79.5452 13.4108C79.613 13.5974 79.7091 13.9479 79.7485 14.1402C79.8168 14.4117 79.6753 14.6718 79.4376 14.7566L72.2954 17.3579C72.8894 18.7491 74.6307 19.6878 76.3389 19.0714C77.2831 18.7264 77.9956 17.9913 78.3972 17.4597C78.6458 17.16 78.7928 16.9904 79.0982 17.177L80.1954 17.9064C80.4555 18.0478 80.6086 18.2288 80.3938 18.6077C79.8731 19.5408 78.7426 20.6943 76.983 21.3334C73.8051 22.4927 70.7966 20.7622 69.6939 17.7368C68.6197 14.7736 69.7901 11.4598 72.9456 10.3118ZM76.9213 13.801C76.3842 12.5681 74.9416 11.8726 73.6527 12.342C72.2331 12.8566 71.5036 14.2816 71.826 15.6558L76.9213 13.801Z" fill="#2B333F"/>
<path d="M82.4531 7.20049C82.4531 6.92341 82.7017 6.66895 82.9848 6.66895H84.5798C84.8568 6.66895 85.1109 6.91772 85.1109 7.20049V20.9647C85.1109 21.2419 84.8623 21.4963 84.5798 21.4963H82.9848C82.7078 21.4963 82.4531 21.2475 82.4531 20.9647V7.20049Z" fill="#2B333F"/>
<path d="M49.383 10.3197H48.2236V7.20382C48.2236 7.12464 48.2009 7.04547 48.1616 6.97198C48.0822 6.791 47.9067 6.65527 47.7033 6.65527L46.8664 6.67221H46.0975C45.8203 6.67221 45.5659 6.92105 45.5659 7.20382V10.3197H44.4065C44.101 10.3197 43.875 10.5459 43.875 10.8513V12.1067C43.875 12.3838 44.101 12.6383 44.4065 12.6383H45.5659V20.9681C45.5659 21.2452 45.8147 21.4996 46.0975 21.4996H47.692C47.9691 21.4996 48.2236 21.2508 48.2236 20.9681V12.6383H49.383C49.6884 12.6383 49.9145 12.3895 49.9145 12.1067V10.8456C49.9145 10.5402 49.6937 10.3197 49.383 10.3197Z" fill="#2B333F"/>
<path d="M87.7188 7.20245C87.7188 6.92536 87.968 6.6709 88.2504 6.6709H89.8454C90.1225 6.6709 90.3771 6.91968 90.3771 7.20245V20.9667C90.3771 21.2438 90.1285 21.4983 89.8454 21.4983H88.2504C87.9734 21.4983 87.7188 21.2494 87.7188 20.9667V7.20245Z" fill="#2B333F"/>
</g>
</svg>
