<svg width="91" height="33" viewBox="0 0 91 33" fill="none" xmlns="http://www.w3.org/2000/svg">
<g clip-path="url(#clip0_4011_11371)">
<mask id="mask0_4011_11371" style="mask-type:luminance" maskUnits="userSpaceOnUse" x="0" y="0" width="90" height="33">
<path d="M89.2611 0.753906L0.4375 0.753906L0.4375 32.3805H89.2611V0.753906Z" fill="white"/>
</mask>
<g mask="url(#mask0_4011_11371)">
<mask id="mask1_4011_11371" style="mask-type:luminance" maskUnits="userSpaceOnUse" x="0" y="0" width="90" height="33">
<path d="M89.2612 0.970703L0.4375 0.970703L0.4375 32.0931H89.2612V0.970703Z" fill="white"/>
</mask>
<g mask="url(#mask1_4011_11371)">
<path d="M28.4516 14.2906H20.0161C19.5278 14.2906 19.1726 14.779 19.3354 15.2378L21.3628 20.4913C21.4516 20.7281 21.2741 20.9798 21.0224 20.9649L18.4326 20.8022C18.3143 20.7874 18.1959 20.8466 18.1367 20.9501L16.1241 23.8063C16.0204 23.9692 15.7984 24.0283 15.6356 23.9099L12.6462 21.8825C12.5278 21.8085 12.3651 21.8085 12.2614 21.8825L8.1177 24.6795C7.85136 24.8571 7.49614 24.6056 7.58496 24.2947L8.73927 20.1806C8.78368 20.0031 8.70967 19.8401 8.53208 19.7663L6.34184 18.8783C6.11985 18.7896 6.06065 18.5231 6.20865 18.3456L8.1325 15.9481C8.22133 15.8297 8.23614 15.6668 8.14732 15.5337L6.51943 13.1806C6.37144 12.9586 6.50463 12.6627 6.7858 12.6479L9.31642 12.4555C9.494 12.4407 9.64204 12.2779 9.64204 12.0856L9.43485 8.54854C9.42005 8.29701 9.67165 8.11942 9.92318 8.20819L13.0606 9.51052C13.1938 9.56968 13.3566 9.54006 13.4453 9.4217L15.606 7.00947C15.7836 6.81709 16.0944 6.87628 16.1979 7.09826L17.5003 10.4428C17.6779 10.8572 18.1959 11.0052 18.5511 10.7241L23.627 6.95027C24.2043 6.5211 23.8342 5.60356 23.1239 5.70716L19.7793 6.15113C19.6166 6.18072 19.4685 6.07712 19.4094 5.92915L17.6483 1.41544C17.4559 0.941873 16.8491 0.823481 16.494 1.20826L12.6758 5.35197C12.5722 5.45557 12.4242 5.48517 12.2911 5.42598L7.25934 3.30972C6.81541 3.13212 6.31224 3.44291 6.29745 3.93128L6.11985 9.12576C6.10505 9.30334 5.97187 9.45131 5.79428 9.45131L1.20658 9.74725C0.673817 9.77686 0.377836 10.3836 0.673817 10.8276L3.72241 15.3265C3.8112 15.4596 3.79641 15.6225 3.69282 15.7557L0.599821 19.3074C0.289043 19.6626 0.422234 20.2103 0.851405 20.4026L4.40317 21.9416C4.56595 22.0157 4.63996 22.1785 4.59556 22.3412L2.3165 31.2207C2.15372 31.8571 2.86407 32.3306 3.39683 31.9606L11.9359 25.8339C12.0543 25.7598 12.217 25.745 12.3354 25.8339L16.2276 28.5716C16.5532 28.8084 16.9823 28.7049 17.2043 28.394L19.6314 24.6647C19.7053 24.5463 19.8386 24.4871 19.9569 24.5167L25.7729 25.2123C26.2465 25.2863 26.7201 24.8866 26.5424 24.4575L24.1154 18.1975C24.0414 18.0199 24.1154 17.8423 24.3226 17.7388L28.7476 15.6521C29.4284 15.2969 29.1916 14.2906 28.4516 14.2906Z" fill="#2B333F"/>
<path d="M88.9635 14.2902H82.4075C82.2742 14.2902 82.1712 14.3938 82.1712 14.5271V17.4276C82.1712 17.5608 82.2742 17.6643 82.4075 17.6643H85.2047C85.338 17.6643 85.4415 17.7679 85.4415 17.9011C85.4119 19.3958 85.1159 22.0744 82.3927 22.0744C80.1734 22.0744 79.3 19.3958 79.3 16.2733C79.3 12.5587 80.2171 10.2649 82.2742 10.2649C83.7693 10.2649 84.2573 11.5228 84.3905 11.9964C84.4201 12.0999 84.5237 12.1739 84.6274 12.1739H88.0316C88.1648 12.1739 88.2832 12.0556 88.2684 11.9223C88.1351 10.0577 86.5364 6.8019 82.3334 6.8019C79.3887 6.8019 76.6359 8.59259 75.7631 13.0175V7.31987C75.7631 7.24588 75.7039 7.20148 75.6448 7.20148H72.0339C71.9598 7.20148 71.9155 7.26067 71.9155 7.31987V17.4868C71.9155 17.62 71.7378 17.6496 71.6786 17.5312L66.9427 7.26067C66.9131 7.21627 66.8836 7.18668 66.8391 7.18668H63.6425C63.5685 7.18668 63.5242 7.24588 63.5242 7.30507V13.0027C62.3402 9.39174 59.1288 6.78711 54.9555 6.78711C50.2938 6.78711 46.8457 10.0133 46.0465 14.2902H39.5202C39.4462 14.2902 39.4018 14.3493 39.4018 14.4086V17.546C39.4018 17.62 39.461 17.6643 39.5202 17.6643H42.5688C42.6427 17.6643 42.6871 17.7236 42.6871 17.7828C42.6723 19.2331 42.4207 22.0744 39.6386 22.0744C37.4187 22.0744 36.5456 19.3958 36.5456 16.2733C36.5456 12.5587 37.4631 10.2649 39.5202 10.2649C41.1037 10.2649 41.5623 11.7004 41.666 12.0851C41.6808 12.1443 41.7253 12.1739 41.7843 12.1739H45.4398C45.5137 12.1739 45.573 12.1147 45.5582 12.0408C45.4842 10.2057 43.9155 6.8019 39.609 6.8019C36.0424 6.8019 32.7422 9.43615 32.7422 16.2436C32.7422 20.9202 34.5773 25.5523 39.6682 25.5523C43.427 25.5523 45.8393 22.6369 46.3721 19.1296C47.5116 22.8589 50.7526 25.5523 55.0148 25.5523C59.1288 25.5523 62.3994 22.9476 63.5833 19.3071V25.0639C63.5833 25.1378 63.6425 25.1823 63.7018 25.1823H67.3128C67.3867 25.1823 67.4311 25.1231 67.4311 25.0639V15.0598C67.4311 14.9266 67.6086 14.897 67.6679 15.0153L72.4033 25.1231C72.433 25.1675 72.4625 25.1971 72.5069 25.1971H75.7039C75.7779 25.1971 75.8224 25.1378 75.8224 25.0787V19.3663C76.5175 22.7997 78.5005 25.5818 82.437 25.5818C86.7288 25.5818 89.2596 21.8081 89.2596 17.6791V14.5861C89.2004 14.3938 89.0967 14.2902 88.9635 14.2902ZM54.9851 21.8081C51.9513 21.8081 49.8498 19.4847 49.8498 16.1845C49.8498 12.8844 51.9513 10.5608 54.9851 10.5608C58.0041 10.5608 60.1203 12.8844 60.1203 16.1845C60.1203 19.4847 58.0041 21.8081 54.9851 21.8081Z" fill="#2B333F"/>
</g>
</g>
</g>
<defs>
<clipPath id="clip0_4011_11371">
<rect width="90.3333" height="32.7458" fill="white"/>
</clipPath>
</defs>
</svg>
