<svg width="97" height="33" viewBox="0 0 97 33" fill="none" xmlns="http://www.w3.org/2000/svg">
<g clip-path="url(#clip0_4011_11418)">
<mask id="mask0_4011_11418" style="mask-type:luminance" maskUnits="userSpaceOnUse" x="4" y="6" width="88" height="22">
<path d="M91.9355 6.45215L4.83594 6.45215L4.83594 27.6222L91.9355 27.6222V6.45215Z" fill="white"/>
</mask>
<g mask="url(#mask0_4011_11418)">
<path d="M55.3431 12.9159C54.5774 12.9159 53.7535 13.0746 53.1171 13.6193C52.4512 14.0725 52.1357 14.5204 52.0015 14.6966C51.8673 14.8727 51.7696 14.7955 51.8126 14.6966C51.8556 14.5976 52.4093 13.1778 52.4093 13.1778C52.4093 13.1778 52.5485 12.9159 52.4093 12.7693C52.2701 12.6226 52.0015 12.7693 52.0015 12.7693C50.5496 13.4082 48.9981 13.8272 47.3572 14.0157C47.3572 14.0157 47.0456 14.0203 47.0456 14.3713C47.0456 14.7223 47.3572 14.6966 47.3572 14.6966C47.9638 14.7699 48.3517 14.9061 48.5406 15.1051C48.7196 15.3041 48.8091 15.6184 48.8091 16.0479V24.3333C48.8091 24.8256 48.7595 25.0874 48.4113 25.2656C48.2423 25.3597 48.103 25.4122 48.0135 25.4435C47.9141 25.4645 47.6952 25.5064 47.3572 25.5798C47.3572 25.5798 46.9846 25.6082 47.009 25.9296C47.0334 26.251 47.3572 26.3025 47.3572 26.3025H53.8613C53.8613 26.3025 54.1744 26.2639 54.1744 25.9425C54.1744 25.621 53.8613 25.5798 53.8613 25.5798C53.4734 25.5064 53.2347 25.4645 53.1253 25.4435C53.0159 25.4122 52.8668 25.3597 52.6679 25.2656C52.2701 25.0874 52.2303 24.8256 52.2303 24.3333V22.4269C52.8867 22.6363 53.5431 22.7411 54.1894 22.7411C55.3829 22.7411 56.5962 22.2907 57.5708 21.4528C58.5454 20.6253 59.1917 19.2216 59.1917 17.5561C59.1917 16.1211 58.8041 14.9899 58.0283 14.1624C57.2427 13.3349 56.3475 12.9159 55.3431 12.9159ZM53.921 21.7565C53.364 21.7565 52.9463 21.5051 52.6578 21.0128C52.3695 20.5205 52.2303 19.9025 52.2303 19.1798V16.7391C52.2303 16.3306 52.3894 15.8697 52.7077 15.3564C53.0159 14.8433 53.3839 14.5918 53.8017 14.5918C54.3486 14.5918 54.7762 14.9374 55.1044 15.6288C55.4326 16.3201 55.5917 17.2105 55.5917 18.2998C55.5917 20.6043 55.0348 21.7565 53.921 21.7565Z" fill="#2B333F"/>
<path d="M79.5192 21.7419C79.6584 21.7733 79.887 21.8258 80.1949 21.8991C80.1949 21.8991 80.5493 21.9363 80.5493 22.3529C80.5493 22.7694 80.1949 22.7866 80.1949 22.7866H73.9703C73.9703 22.7866 73.6648 22.7096 73.6648 22.3529C73.6648 21.9961 73.9703 21.9363 73.9703 21.9363C74.4052 21.9109 74.5431 21.7833 74.5431 21.7833C74.6731 21.7519 74.8122 21.6786 74.9713 21.5843C75.2895 21.3958 75.3494 21.1339 75.3494 20.6835V16.6879C75.3494 16.2584 75.2592 16.1187 75.0802 15.9196C74.9024 15.7322 74.6949 15.4529 74.0737 15.3894C74.0737 15.3894 73.6406 15.3456 73.6406 14.7671C73.6406 14.1888 74.0652 14.0644 74.0652 14.0644C75.5617 13.8089 76.7702 13.5317 77.4125 13.3046C77.4125 13.3046 77.8529 13.1062 78.1329 13.1993C78.413 13.2924 78.3271 13.8031 78.3271 13.8031C78.2871 14.1625 78.2218 14.7238 78.2061 14.8186C78.1819 14.96 78.2787 15.0467 78.3615 14.8829C79.0112 13.5972 80.6933 13.0033 81.8068 13.0033C82.0651 13.0033 82.9869 12.9584 83.1042 13.1993C83.2234 13.4402 82.5514 13.8029 82.0875 14.5486C81.782 15.0402 81.4433 15.7957 81.3804 16.0142C81.3187 16.2329 81.0495 16.0848 81.0495 16.0848C80.5632 15.8735 79.7884 15.8344 79.3529 16.2574C78.8158 16.7793 78.6942 17.4937 78.6942 18.3002V20.6421C78.6942 21.103 78.7831 21.3544 79.0819 21.5429C79.2313 21.6372 79.3704 21.7106 79.5192 21.7419Z" fill="#2B333F"/>
<path d="M61.306 13.3095C61.306 11.649 61.4965 10.2186 62.5829 8.89527C63.6002 7.65615 64.6702 7.01075 66.1358 7.01074C66.5029 7.01074 67.4375 7.11535 67.2627 7.57644C67.1895 7.76927 66.9578 8.05216 66.8719 8.1807C66.6808 8.46843 66.587 8.515 66.0499 8.57373C64.3164 8.91524 64.6194 11.9765 64.6194 13.179V14.201C64.6194 14.651 65.2563 14.6125 65.4886 14.6125C65.7203 14.6125 66.2247 14.7482 66.2247 15.2322C66.2247 15.7163 65.7572 15.8596 65.5497 15.8596C65.3422 15.8596 64.6194 15.7696 64.6194 16.5925V17.6853V20.6532C64.6194 21.0878 64.6563 21.4268 64.9267 21.6709C65.0979 21.8251 65.4051 21.8507 65.6108 21.9158C65.6108 21.9158 65.9277 21.9955 65.9277 22.3522C65.9277 22.709 65.5443 22.7604 65.5443 22.7604L59.7729 22.7861C59.7729 22.7861 59.4219 22.6318 59.4219 22.2752C59.4219 21.9184 59.7729 21.8777 59.7729 21.8777C60.323 21.795 60.7163 21.6708 60.9419 21.5156C61.1681 21.3604 61.286 21.0707 61.286 20.6361V16.3224C61.286 15.641 60.7157 15.6667 60.2396 15.5896C59.7633 15.5125 59.4826 15.3052 59.4826 14.8809C59.4826 14.4567 59.8488 14.2615 60.0074 14.2698C60.1289 14.2762 60.6788 14.3553 60.8258 14.3662L60.8306 14.3666C60.9794 14.3778 61.306 14.4021 61.306 14.0082V13.3095Z" fill="#2B333F"/>
<path d="M68.156 16.5979V20.4661C68.156 21.6747 67.9848 21.8803 67.3297 21.9609C67.3297 21.9609 66.9844 21.9609 66.9844 22.3561C66.9844 22.7513 67.3297 22.7899 67.3297 22.7899H72.1347C72.1347 22.7899 72.5261 22.7547 72.5261 22.4076C72.5261 22.0605 72.2817 21.9397 72.2817 21.9397L72.2799 21.9392C72.0603 21.864 71.8747 21.8006 71.6956 21.6647C71.5166 21.5285 71.5117 21.1267 71.5117 20.6868C71.5117 20.6868 71.5129 17.0349 71.5129 16.5207C71.5129 16.0064 71.6472 15.7244 71.989 15.6721C72.3307 15.6197 72.5225 15.4279 72.5043 15.0755C72.4862 14.7231 72.318 14.4121 71.94 14.4636C71.5619 14.515 70.7684 14.7288 69.9016 14.7931C69.0342 14.8576 68.3393 14.8955 67.8753 14.8878C67.4114 14.8802 67.086 15.0944 67.086 15.4539C67.086 15.8135 67.2995 15.9807 67.5082 15.9936C67.7163 16.0064 68.156 15.9936 68.156 16.5979Z" fill="#2B333F"/>
<path fill-rule="evenodd" clip-rule="evenodd" d="M34.7596 21.8237C34.7366 21.8093 34.714 21.7952 34.6824 21.7801C34.4437 21.6649 34.2448 21.3296 34.2448 20.7326V15.9248C34.752 15.2858 35.2891 14.9611 35.8459 14.9611C36.2438 14.9611 36.5322 15.0868 36.7013 15.3381C36.8703 15.5895 36.9499 16.0609 36.9499 16.7627V20.7326C36.9499 21.183 36.8803 21.4449 36.6018 21.6334C36.4526 21.7277 36.3333 21.8011 36.2438 21.8325C36.1443 21.8638 36.1063 21.8788 35.9109 21.9559C35.9109 21.9559 35.6823 22.0366 35.6823 22.3562C35.6823 22.6759 35.9842 22.7228 35.9842 22.7228H41.3675C41.3675 22.7228 41.6604 22.6759 41.6604 22.3544C41.6604 22.033 41.4569 21.9896 41.4569 21.9896C41.4569 21.9896 41.0135 21.8273 40.7092 21.6334C40.4049 21.4395 40.3511 21.1935 40.3511 20.7326V15.8619C40.9081 15.2649 41.455 14.9611 42.002 14.9611C42.7578 14.9611 43.1258 15.3906 43.1258 16.7627V20.7326C43.1258 21.0992 43.1049 21.2564 42.917 21.5182C42.7421 21.7619 42.4177 21.8866 42.2948 21.9338C42.2856 21.9373 42.2775 21.9404 42.2707 21.943C42.2556 21.949 42.2365 21.9542 42.2147 21.96C42.0963 21.9917 41.9045 22.0431 41.9045 22.3544C41.9045 22.7228 42.2707 22.7228 42.2707 22.7228H47.6906C47.6906 22.7228 48.0813 22.7144 48.0813 22.3673C48.0813 22.0202 47.6906 21.9816 47.6906 21.9816C47.4019 21.914 47.2749 21.8585 47.1687 21.8121C47.1432 21.8009 47.119 21.7902 47.0939 21.7801C46.8155 21.6649 46.5271 21.3296 46.5271 20.7326V16.3961C46.5271 15.3906 46.3282 14.5839 45.9303 13.9869C45.5225 13.3898 44.7668 13.0862 43.6529 13.0862C42.8275 13.0862 42.1611 13.2642 41.6738 13.6099C41.1766 13.966 40.6992 14.4792 40.2516 15.1495H40.2119C39.8439 13.7775 38.8991 13.0862 37.3975 13.0862C36.5123 13.0862 35.8908 13.2663 35.2791 13.746C34.9385 13.9639 34.6902 14.1383 34.5247 14.2691C34.3591 14.4 33.9132 14.7873 33.8623 14.836C33.8114 14.8847 33.6527 14.9611 33.7078 14.7924C33.7628 14.6237 34.0189 13.6763 34.0189 13.6763C34.0189 13.6763 34.1776 13.2106 33.9456 13.0206C33.7259 12.8406 33.3475 13.0862 33.3475 13.0862C32.3828 13.6203 31.3309 13.8822 29.4711 14.186C29.4711 14.186 29.1427 14.2093 29.1427 14.5226C29.1427 14.836 29.4711 14.8668 29.4711 14.8668C30.028 14.8354 30.396 14.9192 30.5651 15.0972C30.7342 15.2754 30.8237 15.5791 30.8237 16.0085V20.7326C30.8237 21.183 30.7441 21.4449 30.4756 21.6334C30.3364 21.7277 29.8023 21.8343 28.933 21.8343C28.0637 21.8343 27.6082 21.0931 27.5991 20.4079C27.5901 19.7228 27.5991 16.2705 27.5991 16.2705C27.5991 15.2543 27.3108 14.4374 26.724 13.8403C26.1372 13.2433 25.3217 12.9395 24.2775 12.9395C23.631 12.9395 22.8951 13.0547 22.0797 13.2747C21.2641 13.4946 20.5381 13.8298 19.8917 14.2802C19.2452 14.7307 18.927 15.223 18.927 15.7362C18.927 16.019 19.0264 16.2809 19.2253 16.5218C19.4143 16.7627 19.6829 16.8884 20.021 16.8884C20.4486 16.8884 20.8066 16.7104 21.1149 16.3648C21.4232 16.019 21.7116 15.3906 22 14.4897C22.1194 14.1336 22.2984 13.9554 22.5271 13.9554C23.094 13.9554 23.5217 14.0812 23.7901 14.3326C24.0587 14.5945 24.1979 15.1077 24.1979 15.8828V16.3541C24.1979 16.5561 23.6013 16.8779 23.3625 16.9826C23.2432 17.0351 23.094 17.0979 22.9051 17.1503C22.7802 17.1849 22.69 17.215 22.6317 17.2344C22.6019 17.2443 22.5804 17.2515 22.5669 17.2551C22.4774 17.2864 22.3282 17.3283 22.1392 17.3807C21.8149 17.4844 21.5311 17.5739 21.2856 17.6512C21.1098 17.7067 20.9537 17.756 20.8166 17.7997C20.4883 17.9149 20.1403 18.0511 19.7723 18.2292C19.3945 18.4072 19.106 18.5957 18.917 18.7739C18.5192 19.1509 18.2109 19.7375 18.2109 20.4498C18.2109 21.2354 18.4795 21.8115 19.0165 22.1781C19.5436 22.5447 20.1701 22.7228 20.8961 22.7228C22.1592 22.7333 23.2631 22.1781 24.1979 21.0574C24.2377 21.4868 24.4565 21.8638 24.8643 22.2096C25.2621 22.5552 25.6798 22.7228 26.1173 22.7228L28.1859 22.7233C28.336 22.723 28.478 22.723 28.6784 22.7232C28.8039 22.7232 28.9523 22.7233 29.1399 22.7233H29.4711L35.0809 22.7228C35.0809 22.7228 35.3128 22.6759 35.3128 22.3544C35.3128 22.033 35.0809 21.9559 35.0809 21.9559C34.8759 21.8964 34.8163 21.8591 34.7596 21.8237ZM21.8951 20.7566C22.0741 21.0603 22.3427 21.207 22.6907 21.207C23.1581 21.207 23.6553 20.83 24.2024 20.0863V17.7085L22.8996 18.0541C22.0939 18.3055 21.6167 19.0073 21.6167 19.7301C21.6167 20.1176 21.7061 20.4528 21.8951 20.7566Z" fill="#2B333F"/>
<path d="M9.85009 18.6656C10.8436 20.4533 11.8358 21.0569 13.9516 21.0569C14.8671 21.0569 15.6849 20.7485 16.4296 20.3969C17.1742 20.0454 17.6258 20.4704 17.6136 20.9308C17.6014 21.3912 17.3085 21.687 16.9911 21.9184C16.6737 22.1498 15.5403 22.8057 13.191 22.8057C10.8416 22.8057 8.94111 22.1458 7.51957 20.8261C6.09797 19.522 5.29688 17.7309 5.29688 15.4684C5.29688 13.1274 6.12785 11.3206 7.63927 10.0166C9.13569 8.71245 11.0098 7.89795 13.4453 8.06834C15.315 8.19911 16.149 8.63443 17.1366 9.41995C18.1242 10.2055 18.4615 11.3922 18.5028 11.7744C18.5902 12.5843 18.5668 13.1507 17.6748 13.3442C16.2673 13.6494 15.8227 12.5594 15.6463 11.9489C15.4699 11.3384 14.4044 9.72686 13.0382 9.5944C10.1818 9.31725 9.30384 11.7364 9.10551 13.3442C8.90706 14.9517 8.85649 16.8779 9.85009 18.6656Z" fill="#2B333F"/>
<path d="M89.1385 20.8904C87.5568 20.8904 86.5424 19.7591 86.2339 17.8423H91.6444C92.1519 16.7006 92.0031 15.6007 91.2065 14.5323C90.4111 13.4639 89.2377 12.9297 87.6959 12.9297C86.3234 12.9297 85.1403 13.3697 84.1556 14.2391C83.1619 15.1084 82.6641 16.313 82.6641 17.8423C82.6641 19.3402 83.131 20.5343 84.0758 21.4247C85.0115 22.315 86.2339 22.7549 87.7558 22.7549C88.7508 22.7549 89.6054 22.5559 90.3113 22.1474C91.0178 21.7494 91.4853 21.2047 91.7339 20.5239C91.7339 20.5239 91.8071 20.2655 91.6444 20.0944C91.4817 19.9232 91.2567 20.0944 91.2567 20.0944C91.0873 20.3248 90.7891 20.5134 90.3814 20.66C89.9732 20.8171 89.5558 20.8904 89.1385 20.8904ZM87.5568 13.9039C88.0449 13.9039 88.3721 14.2076 88.5415 14.8152C88.7005 15.4332 88.6903 16.1245 88.5118 16.8996H86.1444V16.711C86.1444 14.8256 86.6821 13.9039 87.5568 13.9039Z" fill="#2B333F"/>
<path fill-rule="evenodd" clip-rule="evenodd" d="M70.548 13.8546C71.5678 13.5207 72.3075 12.5206 72.3075 11.3386C72.3075 9.626 70.303 6.99121 69.8022 6.99121C69.3008 6.99121 67.2969 9.36253 67.2969 11.3386C67.2969 12.5207 68.0366 13.5209 69.0564 13.8547C68.7824 13.6189 68.6076 13.2562 68.6076 12.8494C68.6076 11.8843 69.5633 10.7262 69.8028 10.7262C70.0411 10.7262 70.9974 12.013 70.9974 12.8494C70.9974 13.2562 70.822 13.6189 70.548 13.8546Z" fill="#2B333F"/>
</g>
</g>
<defs>
<clipPath id="clip0_4011_11418">
<rect width="96.7773" height="32.2591" fill="white"/>
</clipPath>
</defs>
</svg>
