<svg width="77" height="28" viewBox="0 0 77 28" fill="none" xmlns="http://www.w3.org/2000/svg">
<g clip-path="url(#clip0_4011_11349)">
<mask id="mask0_4011_11349" style="mask-type:luminance" maskUnits="userSpaceOnUse" x="0" y="0" width="77" height="28">
<path d="M77 0L0 0L0 27.5679H77V0Z" fill="white"/>
</mask>
<g mask="url(#mask0_4011_11349)">
<mask id="mask1_4011_11349" style="mask-type:luminance" maskUnits="userSpaceOnUse" x="0" y="3" width="78" height="20">
<path d="M77.2376 3.80273L0 3.80273L0 22.8151H77.2376V3.80273Z" fill="white"/>
</mask>
<g mask="url(#mask1_4011_11349)">
<path d="M22.7727 8.22977H17.8984V4.01669L22.7727 3.99023V8.22977Z" fill="#2B333F"/>
<path d="M30.7173 4.0166C30.6156 7.35625 34.7421 9.61661 36.2194 12.6479C37.4931 14.8577 37.544 18.1982 35.965 20.3048C34.6332 22.2098 32.8948 22.6197 30.397 22.7714C29.1603 22.7458 24.4766 22.7449 24.4766 22.7449L24.4934 18.5827C24.4934 18.5827 29.6816 18.5776 29.9324 18.5629C31.1475 18.5034 33.5878 16.3917 30.4943 13.3467C28.1259 10.5007 24.5836 7.95737 25.9283 4.0166H30.7173Z" fill="#2B333F"/>
<path d="M63.328 8.23066H50.6426L50.6172 4.01758H63.3124L63.328 8.23066Z" fill="#2B333F"/>
<path d="M7.08954 3.98673C10.0937 4.17049 12.4683 5.1958 14.316 7.6314C16.1498 10.1491 16.8118 14.054 15.4363 16.9825C14.2651 20.1168 11.0127 22.652 7.98995 22.7728L0 22.7462L0 11.4339H4.789L4.78427 18.348C5.94073 18.4334 10.9826 18.3401 11.0043 13.4367C11.0237 8.85633 6.88288 8.27102 4.79865 8.24842C3.10265 8.243 0.313745 8.27396 0.0255843 8.26515L0 3.99146C0 3.99146 5.52196 3.95251 7.08954 3.98673Z" fill="#2B333F"/>
<path d="M48.8056 8.23145L36.6797 8.24889L36.7053 4.03516H48.78L48.8056 8.23145Z" fill="#2B333F"/>
<path d="M63.3309 11.2264L63.3153 15.6457H55.6378V18.4973L63.3309 18.5141V22.7871H50.6454L50.625 11.2217L63.3309 11.2264Z" fill="#2B333F"/>
<path d="M22.7949 22.7712H17.9297V11.4141H22.7779L22.7949 22.7712Z" fill="#2B333F"/>
<path d="M45.394 22.7468L40.3923 22.7733L40.375 11.2285H45.4103L45.394 22.7468Z" fill="#2B333F"/>
<path d="M69.9301 13.3086L77.1567 4.01758H71.3989L65.2856 11.099L65.2812 15.5902L71.553 22.8147H76.9101L76.9025 21.6839L69.9301 13.3086Z" fill="#2B333F"/>
</g>
</g>
</g>
<defs>
<clipPath id="clip0_4011_11349">
<rect width="77" height="27.5679" fill="white"/>
</clipPath>
</defs>
</svg>
