<svg width="97" height="30" viewBox="0 0 97 30" fill="none" xmlns="http://www.w3.org/2000/svg">
<path d="M48.8944 22.1384C47.9031 22.7169 46.7773 23.0233 45.6304 23.0268C42.6616 23.0268 40.8734 21.4067 40.8734 18.2537V13.7245H38.7031V10.6935H40.8734V7.15723H44.6756V10.6935H48.2V13.7245H44.6756V17.8705C44.6756 19.1073 45.2658 19.6125 46.2729 19.6125C46.8794 19.5882 47.4727 19.4274 48.009 19.1421L48.8944 22.1384Z" fill="#2B333F"/>
<path d="M54.1737 7.1577C54.1737 8.3771 53.2536 9.28293 51.9688 9.28293C50.6841 9.28293 49.7812 8.3771 49.7812 7.1577C49.7812 6.57329 50.0126 6.01278 50.4245 5.59953C50.8364 5.18627 51.395 4.9541 51.9775 4.9541C52.56 4.9541 53.1186 5.18627 53.5305 5.59953C53.9424 6.01278 54.1737 6.57329 54.1737 7.1577ZM50.0591 22.6614V10.6939H53.8613V22.6614H50.0591Z" fill="#2B333F"/>
<path d="M68.4082 22.6596H64.0333L61.759 19.193L59.4498 22.6596H55.1094L59.0332 16.8587L55.1094 10.6572H59.4498L61.759 14.3851L64.0333 10.6572H68.4082L64.4676 16.8587L68.4082 22.6596Z" fill="#2B333F"/>
<path d="M80.0221 17.6446H71.2716C71.5844 19.0731 72.557 19.9615 73.8417 19.9615C74.7266 19.9615 75.7512 19.7525 76.3936 18.5853L79.762 19.2821C78.7374 21.808 76.5847 23.0274 73.8417 23.0274C70.4037 23.0274 67.5391 20.4667 67.5391 16.6866C67.5391 12.9064 70.3867 10.3457 73.8586 10.3457C77.2271 10.3457 79.9356 12.7845 80.0221 16.6866V17.6446ZM71.3412 15.3104H76.2545C75.8903 14.0213 74.9528 13.429 73.8586 13.429C73.2931 13.4287 72.7427 13.6116 72.289 13.9506C71.8354 14.2896 71.5027 14.7666 71.3412 15.3104Z" fill="#2B333F"/>
<path d="M81.1172 22.6633V5.4873H84.9199V22.6633H81.1172Z" fill="#2B333F"/>
<path d="M31.4442 16.6329L25.0551 22.8518L17.7285 15.4658L12.5547 10.2746L18.7702 3.84668L24.8467 8.6894L25.4891 9.4733L31.4442 16.6329Z" fill="#A6A6A6"/>
<path d="M25.0718 20.0328C25.2573 20.2158 25.4047 20.4341 25.5053 20.6748C25.6059 20.9156 25.6576 21.174 25.6576 21.4351C25.6576 21.6961 25.6059 21.9546 25.5053 22.1953C25.4047 22.4361 25.2573 22.6544 25.0718 22.8374C24.8894 23.0236 24.6719 23.1714 24.432 23.2723C24.192 23.3732 23.9344 23.4252 23.6742 23.4252C23.414 23.4252 23.1565 23.3732 22.9165 23.2723C22.6766 23.1714 22.459 23.0236 22.2766 22.8374L18.8217 19.3708L15.3666 22.8374C15.184 23.0317 14.9644 23.1872 14.7208 23.2948C14.4771 23.4023 14.2145 23.4598 13.9484 23.4637C13.6822 23.4675 13.418 23.4178 13.1714 23.3174C12.9247 23.217 12.7007 23.068 12.5125 22.8792C12.3243 22.6903 12.1757 22.4655 12.0757 22.218C11.9756 21.9706 11.926 21.7055 11.9299 21.4384C11.9338 21.1714 11.991 20.9079 12.0982 20.6635C12.2055 20.419 12.3604 20.1986 12.5541 20.0154L16.0091 16.5488L12.5541 13.0822C12.1989 12.7044 12.0044 12.2026 12.012 11.6833C12.0195 11.164 12.2285 10.668 12.5945 10.3008C12.9605 9.93353 13.4548 9.72383 13.9724 9.71627C14.49 9.70871 14.9901 9.90383 15.3666 10.2602L18.8217 13.7268L22.2766 10.2602C22.4593 10.066 22.6789 9.91043 22.9225 9.80288C23.1661 9.69534 23.4288 9.63788 23.6949 9.63401C23.9611 9.63007 24.2253 9.67979 24.4719 9.7802C24.7185 9.88061 24.9426 10.0296 25.1308 10.2185C25.319 10.4073 25.4675 10.6321 25.5676 10.8796C25.6677 11.1271 25.7172 11.3921 25.7133 11.6592C25.7095 11.9262 25.6523 12.1898 25.545 12.4342C25.4378 12.6786 25.2828 12.899 25.0892 13.0822L21.6342 16.5488L25.0718 20.0328Z" fill="#797979"/>
<path d="M28.0942 10.2604L31.445 6.88096C31.8433 6.48133 32.0671 5.9393 32.0671 5.37413C32.0671 4.80897 31.8433 4.26694 31.445 3.86731C31.0467 3.46768 30.5065 3.24316 29.9432 3.24316C29.38 3.24316 28.8398 3.46768 28.4415 3.86731L25.0906 7.24678L21.7225 3.86731C21.3242 3.46768 20.784 3.24316 20.2207 3.24316C19.6574 3.24316 19.1172 3.46768 18.7189 3.86731C18.3206 4.26694 18.0968 4.80897 18.0968 5.37413C18.0968 5.9393 18.3206 6.48133 18.7189 6.88096L22.0871 10.2604L18.7189 13.6399C18.5209 13.8355 18.3637 14.0687 18.2563 14.3259C18.149 14.5831 18.0938 14.8592 18.0938 15.138C18.0938 15.4168 18.149 15.6928 18.2563 15.9501C18.3637 16.2073 18.5209 16.4404 18.7189 16.6361C18.9156 16.8349 19.1496 16.9926 19.4073 17.1003C19.6651 17.208 19.9415 17.2634 20.2207 17.2634C20.4999 17.2634 20.7763 17.208 21.0341 17.1003C21.2918 16.9926 21.5258 16.8349 21.7225 16.6361L25.0906 13.2567L28.4415 16.6361C28.6364 16.8348 28.8689 16.9926 29.1252 17.1002C29.3816 17.208 29.6566 17.2634 29.9346 17.2634C30.2124 17.2634 30.4876 17.208 30.7439 17.1002C31.0003 16.9926 31.2327 16.8348 31.4277 16.6361C31.8198 16.2332 32.0394 15.6924 32.0394 15.1293C32.0394 14.5662 31.8198 14.0254 31.4277 13.6225L28.0942 10.2604Z" fill="#2B333F"/>
</svg>
