<svg width="131" height="29" viewBox="0 0 131 29" fill="none" xmlns="http://www.w3.org/2000/svg">
<g clip-path="url(#clip0_4011_11331)">
<mask id="mask0_4011_11331" style="mask-type:luminance" maskUnits="userSpaceOnUse" x="0" y="0" width="131" height="29">
<path d="M131 0L0 0L0 29L131 29V0Z" fill="white"/>
</mask>
<g mask="url(#mask0_4011_11331)">
<mask id="mask1_4011_11331" style="mask-type:luminance" maskUnits="userSpaceOnUse" x="0" y="0" width="131" height="29">
<path d="M131 0L0 0L0 29L131 29V0Z" fill="white"/>
</mask>
<g mask="url(#mask1_4011_11331)">
<path d="M39.2993 17.3752C39.5169 18.2108 39.6257 19.071 39.6257 19.9311C39.6257 21.3811 39.2993 22.4625 38.603 23.2489C37.058 24.9939 33.8591 25.2396 30.6167 25.2396C29.3981 25.2396 28.0925 25.1905 26.7216 25.1659C26.1123 25.1413 25.4812 25.1167 24.8501 25.1167C23.5663 25.4608 22.413 25.7557 21.5208 25.9523C21.1291 26.0261 20.7374 26.1244 20.3456 26.2227C20.7809 26.1981 21.2379 26.1981 21.6948 26.1981H22.1735C23.7186 26.1981 25.2419 26.2472 26.6998 26.2964C28.0708 26.3456 29.3764 26.3701 30.6167 26.3701C34.0768 26.3701 37.515 26.0998 39.2993 24.06C40.1698 23.0523 40.6268 21.6761 40.6049 19.9557C40.6049 18.7761 40.3873 17.5227 39.9739 16.2939C39.778 16.6625 39.5605 17.0311 39.2993 17.3752ZM21.5861 3.14551C17.038 3.17009 12.5336 5.40653 8.94301 9.41246C5.6789 13.0744 3.74219 17.5964 3.74219 21.504C3.76394 25.8786 6.33172 26.8125 9.07358 26.9354C11.489 26.6159 14.2744 25.9523 16.9945 25.2888C16.2111 25.3625 15.4495 25.4362 14.7314 25.51C12.9688 25.682 11.2932 25.854 9.87873 25.854C6.13587 25.854 4.74318 24.6744 4.72142 21.504C4.69966 17.9159 6.57109 13.5905 9.6176 10.1989C13.034 6.38958 17.2774 4.27602 21.5642 4.25144H21.6514C28.0708 4.25144 35.9264 9.1667 38.6247 15.4828C38.8423 15.0405 38.9729 14.5981 39.0165 14.1311C36.1223 8.35568 29.2894 3.14551 21.6731 3.14551H21.5861Z" fill="#2B333F"/>
<path d="M57.6924 6.95674C58.4975 6.95674 59.2592 7.1042 59.9338 7.37454C60.6084 7.64488 61.2177 8.06268 61.7182 8.5542C62.2186 9.0703 62.6103 9.66014 62.8932 10.3728C63.1762 11.0855 63.3067 11.8474 63.3067 12.6584V20.8914H62.3492V12.6584C62.3492 11.9703 62.2404 11.3313 62.001 10.766C61.7617 10.1762 61.457 9.68471 61.0436 9.26692C60.6301 8.84912 60.1514 8.52962 59.5856 8.28386C59.0198 8.0381 58.3888 7.91522 57.7142 7.91522C57.0396 7.91522 56.4085 8.0381 55.8428 8.28386C55.277 8.52962 54.7765 8.84912 54.363 9.26692C53.9496 9.68471 53.6231 10.1762 53.3838 10.766C53.1444 11.3558 53.0356 11.9703 53.0356 12.6584V20.8914H52.0781V12.683C52.0781 11.8474 52.2087 11.0855 52.4916 10.3974C52.7745 9.68471 53.1661 9.09488 53.6667 8.57878C54.1672 8.06267 54.7765 7.66946 55.451 7.39912C56.1256 7.1042 56.8872 6.95674 57.6924 6.95674ZM76.6461 16.6643C76.4502 17.1313 76.2109 17.5736 75.9279 17.9914C75.645 18.4092 75.2969 18.8025 74.8835 19.1219C74.47 19.466 73.9695 19.7364 73.382 19.933C72.7944 20.1296 72.0981 20.2279 71.3364 20.2279C70.7054 20.2279 70.1178 20.1296 69.5521 19.9575C68.9863 19.7609 68.464 19.5152 67.9853 19.1711C67.5066 18.827 67.0931 18.4338 66.7231 17.9423C66.3533 17.4753 66.0703 16.9347 65.8745 16.3448L77.4077 11.405C77.1466 10.7414 76.8202 10.1516 76.3849 9.5864C75.9715 9.02115 75.4927 8.5542 74.9487 8.16098C74.4047 7.76776 73.8172 7.44827 73.1861 7.22708C72.555 7.00589 71.8805 6.90759 71.1841 6.90759C70.2702 6.90759 69.3998 7.1042 68.5946 7.47284C67.7894 7.84149 67.0713 8.35759 66.462 9.02115C65.8527 9.68471 65.374 10.4465 65.0258 11.3067C64.6777 12.1914 64.5035 13.1008 64.5035 14.0838C64.5035 15.0669 64.6777 16.0008 65.0258 16.8609C65.374 17.7211 65.8745 18.483 66.4838 19.0974C67.0931 19.7364 67.8112 20.2279 68.6599 20.5965C69.4868 20.9652 70.3789 21.1618 71.3364 21.1618C72.9033 21.1618 74.2306 20.7686 75.3186 20.0067C76.3849 19.2203 77.1901 18.1143 77.6906 16.6152H76.6461V16.6643ZM65.4393 14.1084C65.4393 13.2482 65.5916 12.4372 65.8963 11.6753C66.2009 10.9135 66.6144 10.2499 67.1366 9.68471C67.6589 9.11945 68.2682 8.67708 68.9645 8.35759C69.6609 8.0381 70.4008 7.86606 71.1624 7.86606C72.2068 7.86606 73.1644 8.1364 74.013 8.70166C74.8835 9.26691 75.558 10.0041 76.0585 10.9135L65.5698 15.3864C65.4828 14.9686 65.4393 14.5262 65.4393 14.1084ZM90.0072 7.27624H89.0498V15.5092C89.0498 16.1974 88.9409 16.8364 88.7016 17.4016C88.4622 17.9914 88.1358 18.483 87.7223 18.9008C87.3089 19.3186 86.8084 19.638 86.2426 19.8838C85.6768 20.1296 85.0457 20.2525 84.3711 20.2525C83.6965 20.2525 83.0655 20.1296 82.5215 19.8838C81.9557 19.638 81.477 19.3186 81.0636 18.9008C80.65 18.483 80.3237 17.9914 80.0843 17.4016C79.8449 16.8118 79.7361 16.1974 79.7361 15.5092V7.27624H78.7787V15.5092C78.7787 16.3448 78.9092 17.1067 79.1921 17.7948C79.475 18.483 79.8667 19.0974 80.3672 19.6135C80.8677 20.1296 81.4552 20.5228 82.1516 20.7931C82.8262 21.0635 83.5878 21.2109 84.3929 21.2109C85.1981 21.2109 85.9597 21.0635 86.656 20.7931C87.3524 20.5228 87.9399 20.105 88.4404 19.6135C88.9409 19.0974 89.3326 18.5075 89.6155 17.7948C89.8984 17.1067 90.0289 16.3448 90.0289 15.5092V7.27624H90.0072ZM92.205 20.8914H93.1626V12.6584C93.1626 10.9626 93.6413 9.70929 94.6205 8.89827C95.5997 8.08725 96.9271 7.74318 98.6245 7.89064V6.98132C97.6235 6.88301 96.7313 6.93217 95.9262 7.15335C95.1427 7.37454 94.4682 7.74318 93.9024 8.23471C93.3584 8.72623 92.9231 9.36522 92.6185 10.1025C92.3138 10.8397 92.1833 11.6999 92.1833 12.6338V20.8914H92.205ZM111.507 14.133C111.507 13.1499 111.333 12.216 110.985 11.3558C110.636 10.4957 110.158 9.73386 109.549 9.0703C108.939 8.43132 108.221 7.91522 107.416 7.522C106.611 7.15335 105.741 6.95674 104.827 6.95674C103.913 6.95674 103.042 7.15335 102.237 7.522C101.432 7.89064 100.714 8.40674 100.104 9.0703C99.4949 9.70928 99.0161 10.4711 98.668 11.3558C98.3198 12.216 98.1457 13.1499 98.1457 14.133C98.1457 15.116 98.3198 16.0253 98.668 16.8855C99.0161 17.7457 99.4949 18.483 100.104 19.1219C100.714 19.7609 101.41 20.277 102.237 20.6457C103.042 21.0143 103.913 21.2109 104.827 21.2109C106.067 21.2109 107.198 20.8914 108.199 20.2279C109.2 19.5643 109.983 18.7042 110.528 17.6228V20.8914H111.485V14.133H111.507ZM110.528 14.133C110.528 14.9686 110.375 15.7796 110.071 16.5169C109.766 17.2542 109.353 17.8931 108.831 18.4584C108.308 19.0236 107.698 19.4414 107.003 19.7609C106.306 20.0804 105.566 20.2279 104.804 20.2279C104.021 20.2279 103.281 20.0804 102.607 19.7609C101.91 19.4414 101.301 18.9991 100.779 18.4584C100.257 17.8931 99.8431 17.2542 99.5384 16.5169C99.2338 15.7796 99.0814 14.9931 99.0814 14.133C99.0814 13.2974 99.2338 12.4864 99.5384 11.7245C99.8431 10.9626 100.257 10.2991 100.779 9.75844C101.301 9.19319 101.91 8.75081 102.607 8.43132C103.303 8.11183 104.043 7.93979 104.804 7.93979C105.588 7.93979 106.328 8.11183 107.003 8.43132C107.698 8.75081 108.308 9.19319 108.831 9.75844C109.353 10.3236 109.766 10.9626 110.071 11.7245C110.397 12.4864 110.528 13.2728 110.528 14.133ZM114.096 1.23047H113.139V16.1974C113.139 16.9592 113.248 17.6474 113.443 18.2372C113.639 18.8516 113.944 19.3677 114.336 19.7609C114.728 20.1787 115.206 20.4736 115.772 20.6948C116.337 20.8914 116.99 20.9652 117.708 20.8914V19.9821C117.078 20.0067 116.512 19.9575 116.076 19.7609C115.619 19.5889 115.25 19.3186 114.966 18.9745C114.684 18.6304 114.467 18.2126 114.336 17.7457C114.205 17.2787 114.119 16.7381 114.119 16.1482V1.23047H114.096ZM130.939 14.133C130.939 13.1499 130.766 12.216 130.417 11.3558C130.069 10.4957 129.59 9.73386 128.98 9.0703C128.371 8.43132 127.653 7.91522 126.848 7.522C126.044 7.15335 125.172 6.95674 124.258 6.95674C123.344 6.95674 122.474 7.15335 121.669 7.522C120.864 7.89064 120.146 8.40674 119.536 9.0703C118.927 9.70928 118.449 10.4711 118.1 11.3558C117.752 12.216 117.578 13.1499 117.578 14.133C117.578 15.116 117.752 16.0253 118.1 16.8855C118.449 17.7457 118.927 18.483 119.536 19.1219C120.146 19.7609 120.842 20.277 121.669 20.6457C122.474 21.0143 123.344 21.2109 124.258 21.2109C125.499 21.2109 126.631 20.8914 127.632 20.2279C128.633 19.5643 129.416 18.7042 129.96 17.6228V20.8914H130.918V14.133H130.939ZM129.96 14.133C129.96 14.9686 129.808 15.7796 129.503 16.5169C129.199 17.2542 128.785 17.8931 128.262 18.4584C127.74 19.0236 127.131 19.4414 126.435 19.7609C125.739 20.0804 124.999 20.2279 124.237 20.2279C123.454 20.2279 122.714 20.0804 122.017 19.7609C121.321 19.4414 120.712 18.9991 120.189 18.4584C119.667 17.8931 119.254 17.2542 118.949 16.5169C118.645 15.7796 118.492 14.9931 118.492 14.133C118.492 13.2974 118.645 12.4864 118.949 11.7245C119.254 10.9626 119.667 10.2991 120.189 9.75844C120.712 9.19319 121.321 8.75081 122.017 8.43132C122.714 8.11183 123.454 7.93979 124.237 7.93979C125.02 7.93979 125.76 8.11183 126.435 8.43132C127.131 8.75081 127.74 9.19319 128.262 9.75844C128.785 10.3236 129.199 10.9626 129.503 11.7245C129.808 12.4864 129.96 13.2728 129.96 14.133Z" fill="#2B333F"/>
<path d="M33.8816 19.8341C29.5946 22.2671 24.1109 23.6925 21.2385 24.3315C19.9546 24.6264 18.6054 24.9459 17.2998 25.2654C17.1909 25.29 17.1039 25.3146 16.9951 25.3391C18.4748 25.2163 20.0634 25.1179 21.6955 25.0934H22.1742C23.0882 25.0934 23.9804 25.1179 24.8725 25.1425C27.8103 24.3315 31.4661 23.0781 34.5561 21.3332C36.7322 20.1044 38.3207 18.7773 39.3217 17.401C39.1694 16.762 38.9518 16.123 38.6907 15.5086C37.7985 17.2781 35.7312 18.7773 33.8816 19.8341ZM17.0822 0.320469C13.013 1.22979 8.59547 5.06369 4.96141 10.8883C1.67553 16.1476 -0.0870899 21.6281 0.45693 24.823C0.913906 27.4527 2.93766 28.8044 6.4629 28.8044C9.59646 28.8044 13.6657 27.8213 17.6045 26.8629C18.4967 26.6417 19.4324 26.4205 20.3463 26.1993C18.3878 26.273 16.5164 26.4451 14.819 26.6171C13.0347 26.7891 11.3374 26.9612 9.87935 26.9612C9.61823 26.9612 9.33534 26.9612 9.0742 26.9366C8.13848 27.0595 7.26806 27.1332 6.48467 27.1332C2.78534 27.1332 2.11075 25.6341 1.9149 24.5035C1.45792 21.8002 3.19879 16.59 6.18002 11.8222C9.55294 6.41539 13.7527 2.72895 17.3868 1.91793C18.2355 1.72132 19.1494 1.64759 20.1287 1.64759C27.1357 1.64759 38.1031 7.57047 39.0606 13.1001C39.1258 13.4442 39.1258 13.7883 39.0824 14.1324C39.4523 14.8451 39.7351 15.5578 39.9746 16.2705C40.5186 15.14 40.6926 13.9849 40.475 12.7807C39.4523 6.80861 28.5936 0.000976563 20.107 0.000976563C19.0407 0.000976563 18.0397 0.0992824 17.0822 0.320469Z" fill="#2B333F"/>
<path d="M21.6916 25.0674C20.0595 25.0674 18.4927 25.1903 16.9912 25.3132C14.2712 25.9767 11.4857 26.6403 9.07031 26.9598C9.33144 26.9843 9.61433 26.9843 9.87546 26.9843C11.3334 26.9843 13.009 26.8123 14.8152 26.6403C16.5125 26.4682 18.384 26.2962 20.3424 26.2225C20.7341 26.1242 21.1258 26.0504 21.5175 25.9521C22.4097 25.7555 23.563 25.4852 24.8469 25.1165C23.9547 25.092 23.0625 25.0674 22.1485 25.0674H21.6916ZM38.665 15.4826C38.9261 16.097 39.1437 16.736 39.296 17.375C39.5572 17.0064 39.7748 16.6377 39.9489 16.2691C39.7095 15.5564 39.4049 14.8437 39.0567 14.1309C39.0132 14.5979 38.8609 15.0403 38.665 15.4826Z" fill="#2B333F"/>
<path d="M24.3938 12.4119C24.3938 12.7314 24.2196 13.7144 23.7626 14.2551C23.371 14.6975 22.7182 14.9187 22.3483 14.9924C22.3047 14.9924 22.2394 14.9678 22.1959 14.9678C21.913 14.9678 21.0426 14.7712 20.5638 14.2551C20.1287 13.7882 19.9328 12.9526 19.911 12.5594C19.911 12.5102 19.9328 12.461 19.9328 12.4119C19.9328 11.4534 19.2364 10.667 18.3878 10.667C17.8438 10.667 17.365 10.9865 17.1039 11.478C16.9298 11.7483 16.8428 12.0924 16.8428 12.461C16.8428 12.5102 16.8428 12.5348 16.8428 12.5839C16.7992 13.0017 16.6252 13.8127 16.2117 14.2797C15.7547 14.8204 14.8843 15.017 14.6231 15.017C13.7745 15.017 13.0781 15.8034 13.0781 16.7619C13.0781 17.7204 13.7745 18.5068 14.6231 18.5068C15.4719 18.5068 16.1682 17.7204 16.1682 16.7619C16.1682 16.4424 16.3423 15.4594 16.7992 14.9187C17.1909 14.4763 17.8438 14.2551 18.2137 14.1814C18.2572 14.1814 18.3225 14.206 18.3661 14.206C18.6489 14.206 19.5194 14.4026 19.9981 14.9187C20.4333 15.3856 20.6291 16.2212 20.6509 16.6144C20.6509 16.6636 20.6291 16.7127 20.6291 16.7619C20.6291 17.7204 21.3254 18.5068 22.1742 18.5068C22.7182 18.5068 23.1969 18.1873 23.458 17.6958C23.6322 17.4255 23.7192 17.0814 23.7192 16.7127C23.7192 16.6636 23.7192 16.639 23.7192 16.5899C23.7626 16.1721 23.9368 15.361 24.3502 14.9187C24.8072 14.378 25.6559 14.1568 25.9388 14.1568C26.7874 14.1568 27.4838 13.3704 27.4838 12.4119C27.4838 11.4534 26.7874 10.667 25.9388 10.667C25.0901 10.667 24.3938 11.4534 24.3938 12.4119Z" fill="#2B333F"/>
</g>
</g>
</g>
<defs>
<clipPath id="clip0_4011_11331">
<rect width="131" height="29" fill="white"/>
</clipPath>
</defs>
</svg>
