<svg width="9" height="7" viewBox="0 0 9 7" fill="none" xmlns="http://www.w3.org/2000/svg">
<path d="M8.78104 0.219965C8.85077 0.28962 8.90609 0.372337 8.94384 0.463385C8.98158 0.554434 9.00101 0.652029 9.00101 0.75059C9.00101 0.849152 8.98158 0.946747 8.94384 1.0378C8.90609 1.12884 8.85077 1.21156 8.78104 1.28122L3.53104 6.53122C3.46139 6.60095 3.37867 6.65627 3.28762 6.69401C3.19657 6.73175 3.09898 6.75118 3.00042 6.75118C2.90186 6.75118 2.80426 6.73175 2.71321 6.69401C2.62216 6.65627 2.53945 6.60095 2.46979 6.53122L0.219791 4.28122C0.0790609 4.14049 0 3.94961 0 3.75059C0 3.55157 0.0790609 3.3607 0.219791 3.21996C0.360522 3.07923 0.551394 3.00017 0.750417 3.00017C0.94944 3.00017 1.14031 3.07923 1.28104 3.21996L3.00042 4.94028L7.71979 0.219965C7.78945 0.150233 7.87216 0.0949141 7.96321 0.0571709C8.05426 0.0194276 8.15186 0 8.25042 0C8.34898 0 8.44657 0.0194276 8.53762 0.0571709C8.62867 0.0949141 8.71139 0.150233 8.78104 0.219965Z" fill="#1F252D"/>
</svg>
