<svg width="24" height="24" viewBox="0 0 24 24" fill="none" xmlns="http://www.w3.org/2000/svg">
<path d="M17.1016 19.9992V9.99961C17.1016 9.50255 17.5045 9.09961 18.0016 9.09961C18.4986 9.09961 18.9016 9.50255 18.9016 9.99961V19.9992C18.9016 20.4963 18.4986 20.8992 18.0016 20.8992C17.5045 20.8992 17.1016 20.4963 17.1016 19.9992Z" fill="#C8CCD2"/>
<path d="M11.1016 19.9992V3.99961C11.1016 3.50255 11.5045 3.09961 12.0016 3.09961C12.4986 3.09961 12.9016 3.50255 12.9016 3.99961V19.9992C12.9016 20.4963 12.4986 20.8992 12.0016 20.8992C11.5045 20.8992 11.1016 20.4963 11.1016 19.9992Z" fill="#C8CCD2"/>
<path d="M5.10156 19.9996V13.9996C5.10156 13.5026 5.50451 13.0996 6.00156 13.0996C6.49862 13.0996 6.90156 13.5026 6.90156 13.9996V19.9996C6.90156 20.4967 6.49862 20.8996 6.00156 20.8996C5.50451 20.8996 5.10156 20.4967 5.10156 19.9996Z" fill="#C8CCD2"/>
</svg>
