<svg width="38" height="38" viewBox="0 0 38 38" fill="none" xmlns="http://www.w3.org/2000/svg">
<g clip-path="url(#clip0_3977_7971)">
<path fill-rule="evenodd" clip-rule="evenodd" d="M0.126933 14.4752C3.88389 17.3623 7.64086 20.2435 11.3978 23.1306C13.6988 19.0857 17.4244 14.8621 23.4252 12.3232L19.4427 -0.156919C19.2886 -0.6391 18.6291 -0.6391 18.4749 -0.156919L14.3668 12.7131C14.2298 13.1388 13.8672 13.4126 13.439 13.4156L0.429553 13.5138C-0.0614783 13.5168 -0.264177 14.1716 0.12979 14.4752H0.126933Z" fill="white"/>
<path fill-rule="evenodd" clip-rule="evenodd" d="M19.3125 29.1653C19.3896 29.198 19.4667 29.2397 19.538 29.2933L30.1152 37.1867C30.2979 37.3236 30.532 37.3207 30.7118 37.1867C30.8917 37.0498 30.9659 36.8177 30.8974 36.5944L28.2824 27.9926C25.536 27.9926 22.39 28.0491 19.3125 29.1653Z" fill="white"/>
<path fill-rule="evenodd" clip-rule="evenodd" d="M9.23129 29.3492L7.06733 36.4598C6.87891 37.076 7.68397 37.3498 7.95518 36.9718C12.5429 30.5457 19.3945 25.9471 27.6335 25.8519L26.9684 23.6612C26.8399 23.2356 26.9769 22.7891 27.3224 22.5242L37.791 14.473C38.185 14.1694 37.9823 13.5176 37.4913 13.5146C25.4525 13.4253 13.4564 15.4493 9.22844 29.3462L9.23129 29.3492Z" fill="#00A1E3"/>
<path d="M15.6982 20.543C15.8981 20.543 16.0615 20.7125 16.0615 20.9209C16.0613 21.1291 15.898 21.2988 15.6982 21.2988C15.4986 21.2987 15.3361 21.129 15.3359 20.9209C15.3359 20.7126 15.4985 20.5431 15.6982 20.543ZM17.3301 19.1104C17.6725 19.1104 17.95 19.3988 17.9502 19.7559C17.9502 20.113 17.6727 20.4023 17.3301 20.4023C16.9877 20.4021 16.7109 20.1129 16.7109 19.7559C16.7111 19.399 16.9878 19.1106 17.3301 19.1104ZM19.5732 17.7549C20.0326 17.755 20.4031 18.1422 20.4033 18.6211C20.4033 19.1002 20.0327 19.4871 19.5732 19.4873C19.1136 19.4873 18.7422 19.1003 18.7422 18.6211C18.7424 18.1421 19.1137 17.7549 19.5732 17.7549ZM22.3184 16.5029C22.9093 16.5029 23.3916 17.0089 23.3916 17.625C23.3915 18.241 22.9121 18.7441 22.3184 18.7441C21.7247 18.7441 21.2423 18.2439 21.2422 17.625C21.2422 17.0059 21.7275 16.503 22.3184 16.5029ZM25.7754 15.3652C26.5059 15.3655 27.0966 15.9815 27.0967 16.7432C27.0967 17.505 26.506 18.1208 25.7754 18.1211C25.0446 18.1211 24.4531 17.5051 24.4531 16.7432C24.4532 15.9813 25.0446 15.3652 25.7754 15.3652ZM34.3281 14.1992C35.2931 14.1992 36.0781 15.0174 36.0781 16.0234C36.0781 17.0295 35.293 17.8477 34.3281 17.8477C33.3604 17.8476 32.5781 17.0294 32.5781 16.0234C32.5781 15.0174 33.3632 14.1992 34.3281 14.1992ZM29.8213 14.5977C30.6291 14.5978 31.2832 15.2769 31.2832 16.1191C31.2831 16.9613 30.6262 17.6424 29.8213 17.6426C29.0134 17.6426 28.3595 16.9584 28.3594 16.1191C28.3594 15.2798 29.0134 14.5977 29.8213 14.5977Z" fill="white"/>
</g>
<defs>
<clipPath id="clip0_3977_7971">
<rect width="38" height="38" fill="white"/>
</clipPath>
</defs>
</svg>
