<svg width="24" height="24" viewBox="0 0 24 24" fill="none" xmlns="http://www.w3.org/2000/svg">
<path d="M6.92676 4.24341C8.23624 4.24158 9.49267 4.76017 10.4199 5.68481L10.4258 5.69067L10.4326 5.69653L11.6592 6.83911L12 7.15649L12.3408 6.84009L13.5674 5.70044L13.5732 5.69556L13.5791 5.6897C14.5067 4.76892 15.7613 4.25255 17.0684 4.25415C18.3747 4.25586 19.6276 4.77422 20.5527 5.69653V5.69751C21.478 6.62338 21.998 7.87876 21.998 9.18774C21.998 10.4967 21.478 11.7522 20.5527 12.678L20.5508 12.6809L12.1836 21.1799C12.1604 21.2035 12.1321 21.2218 12.1016 21.2346C12.071 21.2474 12.038 21.2542 12.0049 21.2542C11.9718 21.2541 11.9387 21.2474 11.9082 21.2346C11.8931 21.2283 11.8788 21.2203 11.8652 21.2112L11.8271 21.1799L3.4502 12.6799L3.44727 12.677L3.27832 12.5002C2.45679 11.5956 1.99782 10.4155 1.99609 9.18774C1.99429 7.87827 2.51286 6.62182 3.4375 5.69458C4.36217 4.76732 5.61725 4.24524 6.92676 4.24341Z" fill="#C8CCD2" stroke="#B5BBC3"/>
</svg>
