<svg width="173" height="37" viewBox="0 0 173 37" fill="none" xmlns="http://www.w3.org/2000/svg">
<g clip-path="url(#clip0_5652_2700)">
<path fill-rule="evenodd" clip-rule="evenodd" d="M16.6237 30.4619H14.4483L13.0409 28.0275H3.5714L2.1554 30.4619H0L7.63668 17.2524H8.98701L16.6237 30.4619ZM17.5829 32.1254C19.6698 30.5836 21.5169 29.6794 23.6751 29.2737C24.563 29.1085 25.4908 29.0882 26.53 29.0418C29.4619 28.9172 31.0806 28.1608 31.0806 24.8976V23.3007C31.0806 19.6578 28.9651 19.1477 25.8105 19.1477C24.4602 19.1477 23.3925 19.1941 22.596 19.3013C20.2379 19.6201 19.4243 21.0315 19.4243 23.2978V24.8947C19.4243 26.4712 19.8211 27.558 20.6147 28.1579C20.709 28.2304 20.8146 28.297 20.9259 28.3608C20.2922 28.5984 19.6527 28.8824 19.0246 29.2215C17.9255 28.0942 17.5601 26.4393 17.5601 24.8976V23.3007C17.5601 18.6811 20.5719 17.2524 24.6943 17.2524H25.8105C29.9358 17.2524 32.9619 18.6695 32.9619 23.3007V24.8976C32.9619 27.1928 32.2453 29.1375 30.0985 30.1518C34.5635 32.0356 38.623 35.8321 44.0386 35.2988C45.586 35.1481 47.1504 34.5134 48.9889 33.5223H51.878C49.0375 35.8002 46.4367 36.7797 44.0158 36.9652C36.4933 37.5477 30.7266 30.4706 24.9512 30.9749C22.97 31.1458 20.6833 31.9747 18.4308 33.5976L17.5801 32.1254H17.5829ZM11.9275 26.1177L8.30471 19.8462L4.67336 26.1177H11.9303H11.9275ZM43.4591 30.7053C42.5941 30.7053 41.8062 30.6822 41.0982 30.6271C37.6238 30.3663 35.7739 28.3608 35.7739 24.6367V17.2524H37.6381V24.6367C37.6381 28.1086 39.2796 28.7955 42.4285 28.7955C43.6732 28.7955 44.6553 28.7433 45.3661 28.6477C47.6472 28.326 48.2352 26.7465 48.2352 24.6367V17.2524H50.1166V24.6367C50.1166 29.0592 47.5472 30.7053 43.4563 30.7053H43.4591ZM68.0449 30.4619H65.8724L64.465 28.0275H54.9955L53.5795 30.4619H51.4241L59.0608 17.2524H60.4111L68.0478 30.4619H68.0449ZM63.3487 26.1177L59.726 19.8462L56.0946 26.1177H63.3487ZM76.5323 30.5981C75.1877 30.5981 74.0715 30.5459 73.1979 30.4445C71.0625 30.1837 69.1954 29.0563 69.1954 26.6538V26.0104H71.0596V26.6538C71.0596 27.8246 71.7448 28.2709 72.7897 28.497C73.4377 28.6332 74.3598 28.7057 75.5589 28.7057C77.4345 28.7057 78.8134 28.6042 79.6955 28.4042C80.5776 28.1956 81.023 27.729 81.023 26.9871V26.4133C81.023 24.9932 79.6441 24.8802 78.4651 24.7816C77.7399 24.7208 76.7721 24.6918 75.5617 24.6918C73.569 24.6918 72.0845 24.4889 71.1139 24.0861C69.8349 23.4224 69.1983 22.4255 69.1983 21.0953V20.5214C69.1983 17.2843 73.1494 16.9104 75.5617 16.9104C76.9235 16.9104 78.034 16.9568 78.9047 17.064C81.0373 17.3277 82.9072 18.4522 82.9072 20.8547V21.4981H81.0259V20.8547C81.0259 19.681 80.3664 19.2405 79.3158 19.0115C78.6678 18.8753 77.7371 18.8029 76.5409 18.8029C75.3447 18.8029 74.2742 18.8434 73.4605 18.9275C72.4756 19.0202 71.0653 19.2463 71.0653 20.5243V21.0982C71.0653 22.5037 72.5042 22.6168 73.6404 22.7124C74.3655 22.7732 75.3305 22.8022 76.5381 22.8022C78.5479 22.8022 80.0324 23.0109 80.9916 23.4253C82.2706 24.0774 82.9072 25.0743 82.9072 26.4162V26.99C82.9072 27.8913 82.6217 28.6042 82.0536 29.1259C81.003 30.1112 79.1674 30.6039 76.5381 30.6039L76.5323 30.5981ZM93.0047 30.4619H91.1405V19.1506H84.6829V17.2524H99.4538V19.1506H93.0019V30.4619H93.0047ZM113.922 30.4619H111.75L110.342 28.0275H100.873L99.4566 30.4619H97.3012L104.938 17.2524H106.288L113.925 30.4619H113.922ZM109.226 26.1177L105.603 19.8462L101.972 26.1177H109.229H109.226ZM129.872 30.4619H127.768L126.723 28.3376C125.93 26.6045 125.236 25.851 123.246 25.851H117.648V30.459H115.783V17.2495H123.243C124.785 17.2495 126.012 17.3248 126.923 17.6929C128.408 18.2812 129.492 19.4984 129.492 21.1938V21.9067C129.492 23.2717 128.696 24.9874 127.283 25.3352C127.334 25.3989 128.199 27.1088 129.863 30.459L129.872 30.4619ZM123.246 23.9615C124.456 23.9615 125.379 23.8774 126.004 23.7122C126.966 23.4485 127.611 22.9993 127.611 21.9096V21.1967C127.611 20.1186 126.963 19.6549 126.004 19.3999C125.379 19.2347 124.456 19.1506 123.246 19.1506H117.648V23.9615H123.246Z" fill="#00418B"/>
<path fill-rule="evenodd" clip-rule="evenodd" d="M135.127 14.5943C138.884 17.4054 142.641 20.2108 146.398 23.0219C148.699 19.0834 152.424 14.971 158.425 12.499L154.443 0.347236C154.289 -0.122256 153.629 -0.122256 153.475 0.347236L149.367 12.8786C149.23 13.293 148.867 13.5597 148.439 13.5626L135.43 13.6582C134.939 13.6611 134.736 14.2987 135.13 14.5943H135.127Z" fill="#00418B"/>
<path fill-rule="evenodd" clip-rule="evenodd" d="M154.312 28.8977C154.39 28.9296 154.467 28.9702 154.538 29.0223L165.115 36.7081C165.298 36.8414 165.532 36.8385 165.712 36.7081C165.892 36.5748 165.966 36.3487 165.897 36.1314L163.282 27.7559C160.536 27.7559 157.39 27.8109 154.312 28.8977Z" fill="#00418B"/>
<path fill-rule="evenodd" clip-rule="evenodd" d="M144.231 29.0768L142.067 36.0003C141.879 36.6003 142.684 36.8669 142.955 36.4988C147.543 30.2418 154.394 25.7643 162.634 25.6715L161.968 23.5385C161.84 23.1241 161.977 22.6894 162.322 22.4315L172.791 14.5921C173.185 14.2965 172.982 13.6618 172.491 13.6589C160.452 13.572 148.456 15.5427 144.228 29.0739L144.231 29.0768Z" fill="#00A1E3"/>
<path d="M150.698 20.502C150.898 20.502 151.062 20.6673 151.062 20.8701C151.061 21.0729 150.898 21.2383 150.698 21.2383C150.499 21.2381 150.336 21.0728 150.336 20.8701C150.336 20.6673 150.499 20.5021 150.698 20.502ZM152.33 19.1074C152.673 19.1074 152.95 19.3886 152.95 19.7363C152.95 20.0841 152.673 20.3652 152.33 20.3652C151.988 20.365 151.711 20.084 151.711 19.7363C151.711 19.3887 151.988 19.1076 152.33 19.1074ZM154.573 17.7881C155.033 17.7882 155.403 18.1653 155.403 18.6318C155.403 19.0981 155.033 19.4745 154.573 19.4746C154.114 19.4746 153.742 19.0982 153.742 18.6318C153.742 18.1652 154.114 17.7881 154.573 17.7881ZM157.318 16.5684C157.909 16.5684 158.392 17.0612 158.392 17.6611C158.391 18.261 157.912 18.751 157.318 18.751C156.725 18.7509 156.242 18.2638 156.242 17.6611C156.242 17.0584 156.727 16.5684 157.318 16.5684ZM160.775 15.4609C161.506 15.4612 162.097 16.061 162.097 16.8027C162.097 17.5445 161.506 18.1443 160.775 18.1445C160.045 18.1445 159.453 17.5446 159.453 16.8027C159.453 16.0608 160.045 15.4609 160.775 15.4609ZM169.328 14.3252C170.293 14.3252 171.078 15.1221 171.078 16.1016C171.078 17.0811 170.293 17.8779 169.328 17.8779C168.36 17.8779 167.578 17.0811 167.578 16.1016C167.578 15.1221 168.363 14.3252 169.328 14.3252ZM164.821 14.7139C165.629 14.714 166.283 15.3745 166.283 16.1943C166.283 17.0144 165.626 17.6786 164.821 17.6787C164.013 17.6787 163.359 17.0116 163.359 16.1943C163.36 15.3773 164.014 14.7139 164.821 14.7139Z" fill="white"/>
</g>
<defs>
<clipPath id="clip0_5652_2700">
<rect width="173" height="37" fill="white"/>
</clipPath>
</defs>
</svg>
