<svg width="53" height="52" viewBox="0 0 53 52" fill="none" xmlns="http://www.w3.org/2000/svg">
<g clip-path="url(#clip0_3947_22200)">
<path fill-rule="evenodd" clip-rule="evenodd" d="M-0.445017 20.5114C4.85645 24.4622 10.1579 28.4049 15.4594 32.3557C18.7063 26.8205 23.9635 21.0409 32.4313 17.5666L26.8116 0.488522C26.5941 -0.171304 25.6635 -0.171304 25.446 0.488522L19.649 18.1002C19.4556 18.6826 18.944 19.0573 18.3397 19.0614L-0.017988 19.1958C-0.710885 19.1999 -0.996913 20.0959 -0.440985 20.5114H-0.445017Z" fill="white"/>
<path fill-rule="evenodd" clip-rule="evenodd" d="M26.6318 40.6111C26.7406 40.6559 26.8494 40.7129 26.9501 40.7863L41.8756 51.5879C42.1334 51.7752 42.4637 51.7711 42.7175 51.5879C42.9713 51.4005 43.0761 51.0828 42.9794 50.7773L39.2893 39.0063C35.4139 39.0063 30.9745 39.0837 26.6318 40.6111Z" fill="white"/>
<path fill-rule="evenodd" clip-rule="evenodd" d="M12.404 40.8674L9.35044 50.5978C9.08456 51.4409 10.2206 51.8157 10.6033 51.2984C17.077 42.5048 26.7454 36.212 38.3715 36.0817L37.4329 33.0839C37.2516 32.5015 37.445 31.8905 37.9324 31.528L52.7048 20.5106C53.2608 20.0951 52.9747 19.2031 52.2818 19.1991C35.2938 19.0769 18.3661 21.8465 12.4 40.8634L12.404 40.8674Z" fill="#00A1E3"/>
<path d="M21.5283 28.8125C21.8103 28.8125 22.0399 29.0441 22.04 29.3291C22.04 29.6142 21.8103 29.8467 21.5283 29.8467C21.2464 29.8466 21.0166 29.6142 21.0166 29.3291C21.0167 29.0441 21.2464 28.8126 21.5283 28.8125ZM23.8291 26.8574C24.3125 26.8574 24.7031 27.2525 24.7031 27.7412C24.7029 28.2298 24.3124 28.625 23.8291 28.625C23.3459 28.6249 22.9553 28.2297 22.9551 27.7412C22.9551 27.2525 23.3458 26.8575 23.8291 26.8574ZM26.9951 25.0039C27.6435 25.0041 28.1669 25.5329 28.167 26.1885C28.167 26.8441 27.6435 27.3738 26.9951 27.374C26.3465 27.374 25.8223 26.8442 25.8223 26.1885C25.8224 25.5328 26.3466 25.0039 26.9951 25.0039ZM30.8672 23.29C31.7011 23.29 32.3818 23.9821 32.3818 24.8252C32.3818 25.6683 31.7051 26.3564 30.8672 26.3564C30.0294 26.3563 29.3487 25.6723 29.3486 24.8252C29.3486 23.9781 30.0334 23.2901 30.8672 23.29ZM35.749 21.7285C36.7803 21.7285 37.6143 22.5716 37.6143 23.6143C37.614 24.6567 36.7801 25.5 35.749 25.5C34.7179 25.5 33.884 24.6567 33.8838 23.6143C33.8838 22.5716 34.7177 21.7285 35.749 21.7285ZM47.8154 20.1348C49.1769 20.1349 50.2842 21.2553 50.2842 22.6318C50.284 24.0083 49.1768 25.1278 47.8154 25.1279C46.4499 25.1279 45.3459 24.0084 45.3457 22.6318C45.3457 21.2552 46.4538 20.1348 47.8154 20.1348ZM41.4551 20.6807C42.595 20.6807 43.5174 21.6092 43.5176 22.7617C43.5176 23.9143 42.5911 24.8476 41.4551 24.8477C40.315 24.8477 39.3926 23.9103 39.3926 22.7617C39.3927 21.6132 40.3151 20.6807 41.4551 20.6807Z" fill="white"/>
</g>
<defs>
<clipPath id="clip0_3947_22200">
<rect width="53" height="52" fill="white"/>
</clipPath>
</defs>
</svg>
