<svg width="1024" height="160" viewBox="0 0 1024 160" fill="none" xmlns="http://www.w3.org/2000/svg">
<path fill-rule="evenodd" clip-rule="evenodd" d="M131.073 107.932H113.92L102.823 88.543H28.1593L16.9946 107.932H0L60.2128 2.72369H70.8597L131.073 107.932ZM138.636 121.181C155.09 108.901 169.654 101.7 186.671 98.4683C193.671 97.1527 200.987 96.9911 209.18 96.6218C232.298 95.6292 245.06 89.6048 245.06 63.6143V50.8961C245.06 21.8819 228.381 17.8194 203.508 17.8194C192.861 17.8194 184.442 18.1887 178.162 19.0427C159.57 21.5818 153.154 32.8228 153.154 50.873V63.5912C153.154 76.1479 156.283 84.8037 162.541 89.5817C163.284 90.1588 164.116 90.6897 164.994 91.1975C159.997 93.0902 154.955 95.3522 150.003 98.0529C141.337 89.0739 138.456 75.894 138.456 63.6143V50.8961C138.456 14.1032 162.203 2.72369 194.707 2.72369H203.508C236.034 2.72369 259.894 14.0109 259.894 50.8961V63.6143C259.894 81.8954 254.244 97.3835 237.317 105.462C272.522 120.466 304.53 150.703 347.231 146.456C359.431 145.256 371.766 140.201 386.262 132.307H409.042C386.645 150.449 366.139 158.251 347.051 159.728C287.738 164.368 242.269 108.001 196.733 112.018C181.111 113.379 163.081 119.981 145.321 132.907L138.613 121.181H138.636ZM94.0445 73.3319L65.48 23.3822L36.848 73.3319H94.067H94.0445ZM342.661 109.871C335.841 109.871 329.628 109.686 324.046 109.248C296.652 107.17 282.066 91.1975 282.066 61.5369V2.72369H296.765V61.5369C296.765 89.1893 309.708 94.6598 334.535 94.6598C344.35 94.6598 352.093 94.2443 357.698 93.4826C375.683 90.9205 380.32 78.3407 380.32 61.5369V2.72369H395.153V61.5369C395.153 96.7603 374.895 109.871 342.639 109.871H342.661ZM536.513 107.932H519.383L508.286 88.543H433.622L422.457 107.932H405.463L465.676 2.72369H476.322L536.535 107.932H536.513ZM499.485 73.3319L470.92 23.3822L442.288 73.3319H499.485ZM603.433 109.017C592.831 109.017 584.03 108.601 577.142 107.794C560.305 105.716 545.584 96.7372 545.584 77.6021V72.4779H560.283V77.6021C560.283 86.9273 565.685 90.4819 573.923 92.2823C579.033 93.3672 586.304 93.9442 595.758 93.9442C610.546 93.9442 621.418 93.1364 628.374 91.5437C635.329 89.8818 638.841 86.1656 638.841 80.2565V75.6863C638.841 64.376 627.969 63.4758 618.672 62.691C612.955 62.2063 605.324 61.9755 595.78 61.9755C580.069 61.9755 568.364 60.3597 560.71 57.1513C550.626 51.8655 545.607 43.9253 545.607 33.3306V28.7603C545.607 2.97759 576.76 0 595.78 0C606.517 0 615.273 0.36932 622.139 1.22336C638.953 3.32383 653.697 12.2797 653.697 31.4148V36.539H638.863V31.4148C638.863 22.0665 633.664 18.558 625.38 16.7345C620.27 15.6497 612.932 15.0726 603.501 15.0726C594.069 15.0726 585.628 15.3958 579.213 16.0652C571.447 16.8038 560.328 18.6042 560.328 28.7834V33.3537C560.328 44.5485 571.673 45.4487 580.631 46.2104C586.349 46.6951 593.957 46.926 603.478 46.926C619.325 46.926 631.03 48.5879 638.593 51.8886C648.677 57.0821 653.697 65.0223 653.697 75.7094V80.2796C653.697 87.4582 651.446 93.1364 646.967 97.2911C638.683 105.139 624.21 109.063 603.478 109.063L603.433 109.017ZM733.313 107.932H718.614V17.8425H667.698V2.72369H784.162V17.8425H733.29V107.932H733.313ZM898.24 107.932H881.11L870.013 88.543H795.349L784.184 107.932H767.19L827.402 2.72369H838.049L898.262 107.932H898.24ZM861.212 73.3319L832.647 23.3822L804.015 73.3319H861.234H861.212ZM1024 107.932H1007.41L999.172 91.0128C992.914 77.2097 987.445 71.2083 971.755 71.2083H927.615V107.909H912.916V2.70061H971.733C983.888 2.70061 993.567 3.30075 1000.75 6.23217C1012.45 10.9178 1021.01 20.6123 1021.01 34.1154V39.7936C1021.01 50.6652 1014.73 64.3299 1003.58 67.0997C1003.99 67.6075 1010.81 81.226 1023.93 107.909L1024 107.932ZM971.755 56.1588C981.299 56.1588 988.57 55.4894 993.5 54.1737C1001.09 52.0733 1006.17 48.4955 1006.17 39.8167V34.1385C1006.17 25.5519 1001.06 21.8588 993.5 19.8276C988.57 18.5119 981.299 17.8425 971.755 17.8425H927.615V56.1588H971.755Z" fill="white"/>
</svg>
