<svg width="48" height="48" viewBox="0 0 48 48" fill="none" xmlns="http://www.w3.org/2000/svg">
<path d="M31.5 24C31.5 24.1658 31.4342 24.3247 31.3169 24.4419C31.1997 24.5592 31.0408 24.625 30.875 24.625L17.125 24.625C16.9592 24.625 16.8003 24.5592 16.6831 24.4419C16.5658 24.3247 16.5 24.1658 16.5 24C16.5 23.8342 16.5658 23.6753 16.6831 23.5581C16.8003 23.4408 16.9592 23.375 17.125 23.375L30.875 23.375C31.0408 23.375 31.1997 23.4408 31.3169 23.5581C31.4342 23.6753 31.5 23.8342 31.5 24ZM17.125 19.625L30.875 19.625C31.0408 19.625 31.1997 19.5592 31.3169 19.4419C31.4342 19.3247 31.5 19.1658 31.5 19C31.5 18.8342 31.4342 18.6753 31.3169 18.5581C31.1997 18.4408 31.0408 18.375 30.875 18.375L17.125 18.375C16.9592 18.375 16.8003 18.4408 16.6831 18.5581C16.5658 18.6753 16.5 18.8342 16.5 19C16.5 19.1658 16.5658 19.3247 16.6831 19.4419C16.8003 19.5592 16.9592 19.625 17.125 19.625ZM30.875 28.375H17.125C16.9592 28.375 16.8003 28.4408 16.6831 28.5581C16.5658 28.6753 16.5 28.8342 16.5 29C16.5 29.1658 16.5658 29.3247 16.6831 29.4419C16.8003 29.5592 16.9592 29.625 17.125 29.625H30.875C31.0408 29.625 31.1997 29.5592 31.3169 29.4419C31.4342 29.3247 31.5 29.1658 31.5 29C31.5 28.8342 31.4342 28.6753 31.3169 28.5581C31.1997 28.4408 31.0408 28.375 30.875 28.375Z" fill="#2B333F"/>
</svg>
