<svg width="94" height="32" viewBox="0 0 94 32" fill="none" xmlns="http://www.w3.org/2000/svg">
<path d="M15.8988 2.2335C16.5484 2.2335 17.075 1.73351 17.075 1.11675C17.075 0.499987 16.5484 0 15.8988 0C15.2492 0 14.7227 0.499987 14.7227 1.11675C14.7227 1.73351 15.2492 2.2335 15.8988 2.2335Z" fill="#00B536"/>
<path d="M41.185 19.1842H38.2656L42.2141 0L48.746 13.8597L55.3407 0L58.8903 19.1842H55.9708L54.0596 8.43546L48.5989 19.3637L43.1803 8.4155L41.185 19.1842Z" fill="white"/>
<path d="M60.4062 0.179478H63.5147L68.4712 12.1247L73.5329 0L78.4265 12.1247L83.5512 0.19942H86.6596L78.2585 19.1842L73.3649 6.54094L68.4083 19.1842L60.4062 0.179478Z" fill="white"/>
<path d="M90.418 0H93.2953V19.1842H90.418V0Z" fill="white"/>
<path fill-rule="evenodd" clip-rule="evenodd" d="M40.6183 29.9721C41.3114 29.9721 41.7734 29.673 41.9205 29.4338V29.9123H42.5926V24.3086H41.9205V26.2231C41.6684 25.9837 41.2694 25.8242 40.6603 25.8242C39.5052 25.8242 38.5391 26.6817 38.5391 27.9181C38.5391 29.1944 39.4001 29.9721 40.6183 29.9721ZM41.9205 26.9808V28.5961C41.7525 28.9152 41.3324 29.3539 40.7023 29.3539C39.8622 29.3539 39.2532 28.8155 39.2532 27.8982C39.2532 27.0007 39.9462 26.4225 40.7443 26.4225C41.2904 26.4225 41.6684 26.6218 41.9205 26.9808Z" fill="white"/>
<path fill-rule="evenodd" clip-rule="evenodd" d="M44.6541 24.6094C44.6541 24.39 44.465 24.2305 44.234 24.2305C43.9819 24.2305 43.793 24.39 43.793 24.6094C43.793 24.8486 43.9819 25.0082 44.234 25.0082C44.465 25.0082 44.6541 24.8486 44.6541 24.6094ZM44.549 25.9056H43.8769V29.914H44.549V25.9056Z" fill="white"/>
<path fill-rule="evenodd" clip-rule="evenodd" d="M47.7565 31.5101C48.8277 31.5101 49.6468 30.9517 49.6468 29.5956V25.8865H48.9537V26.2454C48.7647 26.0261 48.3236 25.8066 47.6935 25.8066C46.5384 25.8066 45.5933 26.5845 45.5933 27.8806C45.5933 29.1769 46.4334 29.9546 47.6935 29.9546C48.4076 29.9546 48.7017 29.7551 48.9747 29.456V29.6954C48.9747 30.4332 48.5547 30.8719 47.7356 30.8719C47.0635 30.8719 46.6644 30.5728 46.4964 30.2737L45.8874 30.533C46.1184 31.1312 46.8325 31.5101 47.7565 31.5101ZM48.9747 27.0031V28.6185C48.8277 28.9973 48.4076 29.3762 47.7985 29.3563C46.8955 29.3563 46.3073 28.8178 46.3073 27.9006C46.3073 26.9433 47.0005 26.4248 47.7985 26.4248C48.3656 26.4248 48.7857 26.6841 48.9747 27.0031Z" fill="white"/>
<path fill-rule="evenodd" clip-rule="evenodd" d="M51.7088 24.6094C51.7088 24.39 51.5198 24.2305 51.2887 24.2305C51.0367 24.2305 50.8477 24.39 50.8477 24.6094C50.8477 24.8486 51.0367 25.0082 51.2887 25.0082C51.5198 25.0082 51.7088 24.8486 51.7088 24.6094ZM51.6038 25.9056H50.9317V29.914H51.6038V25.9056Z" fill="white"/>
<path d="M52.4424 25.9028H53.3245V24.8857H53.9966V25.9028H55.4457V26.521H53.9966V28.2759C53.9966 29.0736 54.2276 29.3328 54.7316 29.3328C55.0258 29.3328 55.2569 29.2131 55.4879 29.0536L55.8027 29.5322C55.5508 29.7914 55.1309 29.951 54.6056 29.951C53.7865 29.951 53.3245 29.4325 53.3245 28.4354V26.521H52.4424V25.9028Z" fill="white"/>
<path fill-rule="evenodd" clip-rule="evenodd" d="M58.1603 25.8066C57.5516 25.8066 56.8793 26.046 56.4802 26.385L56.8163 26.8637C57.2154 26.5845 57.5932 26.4248 58.0766 26.4248C58.9585 26.4248 59.2103 26.9035 59.2103 27.6214C59.0007 27.5616 58.5386 27.5017 58.2233 27.5017C57.0052 27.5017 56.207 27.8607 56.207 28.7382C56.207 29.476 56.8163 29.9546 57.7404 29.9546C58.4756 29.9546 58.9585 29.6554 59.2103 29.3164V29.9147H59.8826V27.422C59.8826 26.4049 59.2946 25.8066 58.1603 25.8066ZM59.2103 28.1997V28.5985C59.0636 28.9176 58.6016 29.3762 57.8871 29.3762C57.32 29.3762 56.9214 29.137 56.9214 28.7182C56.9214 28.2396 57.4464 28.08 58.3076 28.08C58.6432 28.08 59.0007 28.1398 59.2103 28.1997Z" fill="white"/>
<path d="M61.0977 24.2871H61.7699V29.9107H61.0977V24.2871Z" fill="white"/>
<path fill-rule="evenodd" clip-rule="evenodd" d="M67.3127 25.8066C66.7039 25.8066 66.0316 26.046 65.6326 26.385L65.9687 26.8637C66.3678 26.5845 66.7455 26.4248 67.2289 26.4248C68.1108 26.4248 68.3627 26.9035 68.3627 27.6214C68.153 27.5616 67.691 27.5017 67.3756 27.5017C66.1576 27.5017 65.3594 27.8607 65.3594 28.7382C65.3594 29.476 65.9687 29.9546 66.8928 29.9546C67.628 29.9546 68.1108 29.6554 68.3627 29.3164V29.9147H69.0349V27.422C69.0349 26.4049 68.447 25.8066 67.3127 25.8066ZM68.3627 28.1997V28.5985C68.216 28.9176 67.7539 29.3762 67.0395 29.3762C66.4729 29.3762 66.0738 29.137 66.0738 28.7182C66.0738 28.2396 66.5988 28.08 67.4599 28.08C67.7961 28.08 68.153 28.1398 68.3627 28.1997Z" fill="white"/>
<path fill-rule="evenodd" clip-rule="evenodd" d="M72.1205 31.5101C73.1913 31.5101 74.0103 30.9517 74.0103 29.5956V25.8865H73.3172V26.2454C73.1284 26.0261 72.6877 25.8066 72.0576 25.8066C70.9025 25.8066 69.957 26.5845 69.957 27.8806C69.957 29.1769 70.7974 29.9546 72.0576 29.9546C72.7714 29.9546 73.0654 29.7551 73.3386 29.456V29.6954C73.3386 30.4332 72.9187 30.8719 72.0992 30.8719C71.4275 30.8719 71.0284 30.5728 70.8603 30.2737L70.251 30.533C70.482 31.1312 71.1964 31.5101 72.1205 31.5101ZM73.3172 27.0031V28.6185C73.1913 28.9973 72.7714 29.3762 72.1413 29.3563C71.2381 29.3563 70.6501 28.8178 70.6501 27.9006C70.6501 26.9433 71.3432 26.4248 72.1413 26.4248C72.7085 26.4248 73.1284 26.6841 73.3172 27.0031Z" fill="white"/>
<path fill-rule="evenodd" clip-rule="evenodd" d="M77.2082 29.9911C77.9013 29.9911 78.4892 29.712 78.8883 29.1536L78.4471 28.7747C78.1953 29.1136 77.7332 29.3728 77.229 29.3728C76.3679 29.3728 75.7378 28.9341 75.6962 28.1165H79.0142C79.0564 27.9371 79.0564 27.7775 79.0564 27.638C79.0564 26.5212 78.2161 25.8232 77.1031 25.8232C75.6962 25.8232 74.9609 26.7406 74.9609 27.9171C74.9609 29.1735 75.8642 29.9911 77.2082 29.9911ZM78.3425 27.5383H75.6748C75.7799 26.8802 76.2841 26.4017 77.0609 26.4216C77.8175 26.4216 78.3004 26.8204 78.3425 27.5383Z" fill="white"/>
<path d="M80.0005 25.903H80.6728V26.4215C80.9459 26.0226 81.5131 25.8232 82.1218 25.8232C83.214 25.8232 83.8233 26.3616 83.8233 27.638V29.9114H83.151V27.7177C83.151 26.8403 82.752 26.4414 81.9122 26.4414C81.3872 26.4414 80.9038 26.7605 80.6728 27.259V29.9114H80.0005V25.903Z" fill="white"/>
<path d="M88.7325 29.0772C88.4178 29.6554 87.6617 29.9745 86.9895 29.9745C85.6455 29.9745 84.7422 29.1569 84.7422 27.9005C84.7422 26.724 85.6241 25.8066 86.9473 25.8066C87.7033 25.8066 88.3756 26.1257 88.6488 26.6243L88.1238 26.9633C87.8298 26.5844 87.4723 26.4249 86.9473 26.4249C86.0862 26.4249 85.4353 27.0431 85.4353 27.9005C85.4353 28.778 86.0654 29.3763 87.0316 29.3763C87.5353 29.3763 87.9557 29.137 88.2075 28.7581L88.7325 29.0772Z" fill="white"/>
<path d="M89.8074 30.8714C89.8703 30.8913 89.9125 30.9113 89.9754 30.9113C90.2902 30.9113 90.5004 30.7118 90.7944 30.0737L90.9203 29.7746L88.8833 25.9258H89.6815L91.2565 28.9569L92.4537 25.9258H93.189L91.5926 29.8743C91.0255 31.2303 90.5842 31.5494 89.9963 31.5494C89.8282 31.5494 89.6601 31.5095 89.5342 31.4497L89.8074 30.8714Z" fill="white"/>
<path d="M26.1719 19.1623H30.7715L31.8216 17.4872H24.9538L21.9504 25.4241L20.0392 22.1536L16.7838 27.7972V3.64746H15.0195V31.307H16.7838L20.0392 25.4041L22.0554 29.4125L22.5385 28.196L22.9585 27.159" fill="white"/>
<path d="M5.6497 15.7921H1.02913L0 17.4672H6.86788L9.87123 9.5104L11.7615 12.8008L15.0169 7.15727V31.307H16.8021V3.64746H15.0169L11.7825 9.55027L9.76622 5.54195L9.28316 6.75843H9.26219L8.8631 7.77547V7.79538" fill="white"/>
</svg>
