<svg width="18" height="18" viewBox="0 0 18 18" fill="none" xmlns="http://www.w3.org/2000/svg">
<path d="M15.0234 7.14797L9.39841 12.773C9.34617 12.8253 9.28413 12.8668 9.21585 12.8951C9.14756 12.9234 9.07436 12.9379 9.00044 12.9379C8.92652 12.9379 8.85333 12.9234 8.78504 12.8951C8.71675 12.8668 8.65472 12.8253 8.60247 12.773L2.97747 7.14797C2.89872 7.0693 2.84507 6.96903 2.82333 6.85986C2.80159 6.75069 2.81273 6.63752 2.85534 6.53468C2.89795 6.43184 2.97012 6.34396 3.0627 6.28216C3.15529 6.22036 3.26413 6.18741 3.37544 6.1875H14.6254C14.7368 6.18741 14.8456 6.22036 14.9382 6.28216C15.0308 6.34396 15.1029 6.43184 15.1455 6.53468C15.1882 6.63752 15.1993 6.75069 15.1776 6.85986C15.1558 6.96903 15.1022 7.0693 15.0234 7.14797Z" fill="#343330"/>
</svg>
