<svg width="16" height="16" viewBox="0 0 16 16" fill="none" xmlns="http://www.w3.org/2000/svg">
<path d="M5.52205 6.23223C5.87168 6.58186 6.10978 7.02732 6.20625 7.51227C6.30271 7.99723 6.2532 8.49989 6.06398 8.95671C5.87476 9.41352 5.55433 9.80397 5.14321 10.0787C4.73209 10.3534 4.24874 10.5 3.75428 10.5C3.25983 10.5 2.77648 10.3534 2.36536 10.0787C1.95424 9.80397 1.63381 9.41352 1.44459 8.95671C1.25537 8.49989 1.20586 7.99723 1.30232 7.51227C1.39879 7.02732 1.63689 6.58186 1.98652 6.23223C2.45536 5.76339 3.09124 5.5 3.75428 5.5C4.41733 5.5 5.05321 5.76339 5.52205 6.23223ZM9.76469 5.52513C10.1143 5.1755 10.3524 4.73004 10.4489 4.24509C10.5454 3.76013 10.4958 3.25747 10.3066 2.80065C10.1174 2.34384 9.79697 1.95339 9.38585 1.67869C8.97473 1.40398 8.49138 1.25736 7.99693 1.25736C7.50247 1.25736 7.01912 1.40398 6.608 1.67869C6.19688 1.95339 5.87645 2.34384 5.68723 2.80065C5.49801 3.25747 5.4485 3.76013 5.54496 4.24509C5.64143 4.73004 5.87953 5.1755 6.22916 5.52513C6.698 5.99397 7.33388 6.25736 7.99693 6.25736C8.65997 6.25736 9.29585 5.99397 9.76469 5.52513ZM6.22916 10.4749C5.87953 10.8245 5.64143 11.27 5.54496 11.7549C5.4485 12.2399 5.49801 12.7425 5.68723 13.1993C5.87645 13.6562 6.19688 14.0466 6.608 14.3213C7.01912 14.596 7.50247 14.7426 7.99693 14.7426C8.49138 14.7426 8.97473 14.596 9.38585 14.3213C9.79697 14.0466 10.1174 13.6562 10.3066 13.1993C10.4958 12.7425 10.5454 12.2399 10.4489 11.7549C10.3524 11.27 10.1143 10.8245 9.76469 10.4749C9.29585 10.006 8.65997 9.74264 7.99693 9.74264C7.33388 9.74264 6.698 10.006 6.22916 10.4749ZM10.4718 6.23223C10.1222 6.58186 9.88407 7.02732 9.7876 7.51227C9.69114 7.99723 9.74065 8.49989 9.92987 8.95671C10.1191 9.41352 10.4395 9.80397 10.8506 10.0787C11.2618 10.3534 11.7451 10.5 12.2396 10.5C12.734 10.5 13.2174 10.3534 13.6285 10.0787C14.0396 9.80397 14.36 9.41352 14.5493 8.95671C14.7385 8.49989 14.788 7.99723 14.6915 7.51227C14.5951 7.02732 14.357 6.58186 14.0073 6.23223C13.5385 5.76339 12.9026 5.5 12.2396 5.5C11.5765 5.5 10.9406 5.76339 10.4718 6.23223Z" fill="#2B333F"/>
</svg>
